<svg width="37" height="47" viewBox="0 0 37 47" fill="none" xmlns="http://www.w3.org/2000/svg">
<path d="M35.6516 27.7735C35.3112 27.4441 34.8508 27.2592 34.3708 27.2592C33.8909 27.2592 33.4305 27.4441 33.0901 27.7735L25.5653 35.0992C25.0626 35.5917 24.4645 35.9823 23.8057 36.2483C23.1469 36.5143 22.4405 36.6504 21.7272 36.6488H15.074C14.9225 36.6366 14.7813 36.5694 14.6783 36.4606C14.5753 36.3517 14.5181 36.2092 14.5181 36.0612C14.5181 35.9132 14.5753 35.7707 14.6783 35.6618C14.7813 35.553 14.9225 35.4858 15.074 35.4736H21.7068C22.0319 35.4867 22.3564 35.4356 22.6607 35.3234C22.965 35.2113 23.2429 35.0404 23.4777 34.8211C23.7125 34.6018 23.8993 34.3385 24.0269 34.0471C24.1545 33.7556 24.2203 33.4421 24.2203 33.1253C24.2203 32.8085 24.1545 32.495 24.0269 32.2036C23.8993 31.9122 23.7125 31.6489 23.4777 31.4296C23.2429 31.2102 22.965 31.0394 22.6607 30.9272C22.3564 30.8151 22.0319 30.764 21.7068 30.777H11.8415C10.2933 30.7767 8.77968 31.223 7.49193 32.0597L0.269939 36.7484C0.141921 36.8294 0.0509085 36.9553 0.0158511 37.1C-0.0192063 37.2447 0.00438186 37.397 0.0817082 37.5251L4.90592 45.7472C4.9496 45.8199 5.00868 45.8827 5.07923 45.9315C5.14978 45.9802 5.23019 46.0138 5.3151 46.03H5.43786C5.56816 46.03 5.69477 45.988 5.79793 45.9105L9.50099 43.2057C10.1437 42.7447 10.9064 42.4687 11.7024 42.409L23.1594 41.5326C24.9029 41.4014 26.5217 40.602 27.6603 39.3098L35.6597 30.2632C35.9978 29.9325 36.1876 29.4849 36.1876 29.0183C36.1876 28.5517 35.9978 28.1042 35.6597 27.7735H35.6516Z" fill="#11A63C"/>
<path d="M11.6898 15.3373C11.923 16.4726 12.7716 17.3351 13.3106 17.7816C14.1984 18.52 15.2862 19.0161 16.0153 19.0161C16.8208 19.0161 17.9105 18.5314 18.7905 17.7797C19.6294 17.0641 20.1625 16.2246 20.3389 15.3641C20.4103 15.3226 20.4762 15.2726 20.5349 15.2152C20.5349 15.2152 21.505 12.3531 20.0762 10.5653C20.333 10.0425 20.1605 9.36128 20.1605 9.36128C19.9919 9.58071 19.6333 9.7429 19.2335 9.83639C18.8277 9.59914 18.3838 9.43013 17.9203 9.33648C17.9159 9.08241 17.831 8.83586 17.6773 8.63049C17.593 8.85564 17.25 9.04264 16.8032 9.20291H16.6581C13.9652 9.12659 12.9167 9.63604 12.8226 10.4222C12.2483 10.3745 10.6667 10.8896 11.4506 15.2171C11.4546 15.2133 11.5702 15.4327 11.6898 15.3373Z" fill="#11A63C"/>
<path d="M21.1171 19.2335C20.4625 19.0026 19.3218 19.0942 19.3218 19.0942H18.9161L16.1075 20.2598L13.3166 19.0904C12.8594 19.0623 12.4006 19.07 11.9447 19.1133C11.9494 19.1077 11.9546 19.1026 11.9604 19.098C11.8297 19.1056 11.699 19.119 11.5684 19.1381L10.8804 19.3003L10.7726 19.3384L10.6786 19.3709C9.30662 19.907 8.32666 21.1416 8.32666 22.5821V25.5473C8.32666 27.4782 10.0632 29.0429 12.2053 29.0429H20.045C22.1891 29.0429 23.9237 27.4782 23.9237 25.5473V22.5841C23.9001 20.9965 22.7242 19.659 21.1171 19.2335Z" fill="#11A63C"/>
</svg>
