<svg width="33" height="43" viewBox="0 0 33 43" fill="none" xmlns="http://www.w3.org/2000/svg">
<path d="M31.6903 25.3584C31.3877 25.0577 30.9784 24.8889 30.5519 24.8889C30.1253 24.8889 29.716 25.0577 29.4134 25.3584L22.7247 32.0471C22.2779 32.4968 21.7462 32.8535 21.1606 33.0963C20.575 33.3392 19.9471 33.4635 19.3131 33.462H13.3991C13.2645 33.4509 13.1389 33.3896 13.0474 33.2902C12.9558 33.1908 12.905 33.0606 12.905 32.9255C12.905 32.7904 12.9558 32.6602 13.0474 32.5608C13.1389 32.4615 13.2645 32.4001 13.3991 32.389H19.2949C19.5839 32.4009 19.8723 32.3543 20.1428 32.2519C20.4134 32.1495 20.6604 31.9935 20.8691 31.7932C21.0778 31.593 21.2438 31.3526 21.3572 31.0865C21.4707 30.8204 21.5291 30.5342 21.5291 30.2449C21.5291 29.9557 21.4707 29.6694 21.3572 29.4034C21.2438 29.1373 21.0778 28.8969 20.8691 28.6966C20.6604 28.4964 20.4134 28.3404 20.1428 28.238C19.8723 28.1356 19.5839 28.0889 19.2949 28.1008H10.5258C9.14958 28.1005 7.80416 28.508 6.65949 29.272L0.239946 33.5529C0.126152 33.6269 0.045252 33.7419 0.0140899 33.874C-0.0170722 34.0061 0.00389499 34.1451 0.0726295 34.2622L4.36082 41.7692C4.39965 41.8356 4.45216 41.893 4.51487 41.9375C4.57758 41.982 4.64905 42.0127 4.72453 42.0274H4.83365C4.94947 42.0275 5.06202 41.9891 5.15371 41.9183L8.44533 39.4487C9.01663 39.0278 9.69461 38.7758 10.4021 38.7213L20.5861 37.9211C22.1359 37.8014 23.5749 37.0714 24.5869 35.8916L31.6975 27.6317C31.9981 27.3297 32.1668 26.921 32.1668 26.495C32.1668 26.069 31.9981 25.6604 31.6975 25.3584H31.6903Z" fill="#272A2C"/>
<path d="M16.4024 23.5988C16.5506 23.2965 16.6988 22.9922 16.849 22.6899C16.942 22.9586 17.0629 23.2168 17.2098 23.4603C16.9335 23.4421 16.6568 23.4896 16.4024 23.5988ZM20.8081 23.8952L20.459 23.1697C20.4596 23.1645 20.4596 23.1593 20.459 23.1541C20.4458 23.134 20.427 23.1182 20.405 23.1087C20.383 23.0991 20.3586 23.0963 20.335 23.1004C20.3113 23.1046 20.2894 23.1156 20.2719 23.132C20.2544 23.1485 20.2422 23.1697 20.2366 23.1931C20.2358 23.1976 20.2358 23.2023 20.2366 23.2068C20.221 23.2536 20.2035 23.3004 20.1859 23.3472C20.1294 23.4899 20.0595 23.6271 19.9773 23.7567C19.7471 24.1175 19.3922 24.4842 18.9611 24.5174C18.1147 24.5798 17.5394 23.6865 17.2254 22.9981C17.1317 22.7992 17.0541 22.5931 16.9933 22.3818C16.9828 22.3629 16.9678 22.3469 16.9497 22.3351C16.9315 22.3233 16.9108 22.3162 16.8893 22.3142C16.8677 22.3123 16.846 22.3157 16.8261 22.3241C16.8062 22.3324 16.7886 22.3456 16.7749 22.3623L16.0201 23.8991C16.0201 23.9128 15.9324 24.0532 16.1235 24.0532C16.3146 24.0532 16.4355 23.5793 17.2937 23.5793C17.3995 23.7376 17.5182 23.887 17.6486 24.0259C17.9646 24.3555 18.3819 24.6383 18.8441 24.6461C19.0861 24.6394 19.323 24.5761 19.5361 24.4613C19.7491 24.3465 19.9323 24.1833 20.0709 23.9849C20.1931 23.8251 20.2953 23.6509 20.3751 23.4662L20.6247 23.9908C20.6362 24.0098 20.6534 24.0247 20.6738 24.0333C20.6942 24.042 20.7169 24.0439 20.7385 24.039C20.7601 24.034 20.7796 24.0223 20.7942 24.0056C20.8088 23.9889 20.8178 23.968 20.8198 23.9459C20.8194 23.9282 20.8147 23.9108 20.8061 23.8952" fill="#F6F6F6"/>
<path d="M10.5161 21.7422H9.85104V22.7992H8.8252V23.4623H9.85104V24.4628H10.5161V23.4623H11.5439V22.7992H10.5161V21.7422Z" fill="#F6F6F6"/>
<path d="M10.3909 14.0035C10.5982 15.0401 11.3525 15.8276 11.8316 16.2352C12.6208 16.9094 13.5877 17.3624 14.2358 17.3624C14.9518 17.3624 15.9205 16.9199 16.7027 16.2335C17.4483 15.5802 17.9222 14.8136 18.079 14.0279C18.1425 13.9901 18.201 13.9444 18.2532 13.892C18.2532 13.892 19.1156 11.2788 17.8455 9.64642C18.0738 9.16907 17.9204 8.54713 17.9204 8.54713C17.7706 8.74747 17.4518 8.89555 17.0964 8.98092C16.7357 8.7643 16.3411 8.60999 15.9292 8.52448C15.9252 8.2925 15.8498 8.06739 15.7131 7.87988C15.6382 8.08546 15.3334 8.25619 14.9361 8.40253H14.8072C12.4135 8.33284 11.4815 8.79799 11.3978 9.51576C10.8874 9.4722 9.48148 9.94258 10.1783 13.8938C10.1818 13.8903 10.2846 14.0906 10.3909 14.0035Z" fill="#272A2C"/>
<path d="M18.7706 17.5608C18.1887 17.35 17.1748 17.4336 17.1748 17.4336H16.8142L14.3176 18.4979L11.8369 17.4301C11.4305 17.4045 11.0227 17.4115 10.6174 17.451C10.6216 17.446 10.6262 17.4413 10.6313 17.4371C10.5152 17.4441 10.399 17.4563 10.2829 17.4737L9.67139 17.6218L9.57557 17.6566L9.49194 17.6862C8.27244 18.1758 7.40137 19.3029 7.40137 20.6183V23.3256C7.40137 25.0886 8.94492 26.5172 10.8491 26.5172H17.8177C19.7236 26.5172 21.2654 25.0886 21.2654 23.3256V20.62C21.2445 19.1705 20.1992 17.9493 18.7706 17.5608Z" fill="#272A2C"/>
</svg>
