<svg width="37" height="45" fill="none" xmlns="http://www.w3.org/2000/svg">
  <path d="M35.6516 25.7735c-.3404-.3294-.8008-.5142-1.2808-.5142-.4799 0-.9403.1848-1.2807.5142l-7.5248 7.3257c-.5027.4926-1.1008.8831-1.7596 1.1491s-1.3652.4021-2.0785.4005H15.074c-.1515-.0121-.2927-.0793-.3957-.1881-.103-.1089-.1602-.2515-.1602-.3994 0-.148.0572-.2906.1602-.3994.103-.1089.2442-.1761.3957-.1882h6.6328c.3251.013.6496-.0381.9539-.1502s.5822-.283.817-.5023c.2348-.2194.4216-.4827.5492-.7741.1276-.2914.1934-.6049.1934-.9217 0-.3168-.0658-.6303-.1934-.9217s-.3144-.5547-.5492-.7741c-.2348-.2193-.5127-.3902-.817-.5023-.3043-.1121-.6288-.1632-.9539-.1502h-9.8653c-1.5482-.0004-3.06182.446-4.34957 1.2827L.269939 34.7484c-.128018.081-.2190305.207-.2540879.3517-.0350574.1447-.01146924.2969.0658571.4251l4.8242118 8.222c.04368.0727.10276.1356.17331.1843.07055.0488.15096.0824.23587.0985h.12276c.1303.0001.25691-.042.36007-.1195l3.70306-2.7048c.64271-.4609 1.40541-.737 2.20141-.7967l11.457-.8764c1.7435-.1311 3.3623-.9306 4.5009-2.2228l7.9994-9.0466c.3381-.3307.5279-.7783.5279-1.2448 0-.4666-.1898-.9142-.5279-1.2449h-.0081zM11.6898 13.3373c.2332 1.1353 1.0818 1.9978 1.6208 2.4443.8878.7384 1.9756 1.2345 2.7047 1.2345.8055 0 1.8952-.4847 2.7752-1.2364.8389-.7156 1.372-1.5551 1.5484-2.4156.0714-.0415.1373-.0915.196-.1489 0 0 .9701-2.8621-.4587-4.64993.2568-.52281.0843-1.20399.0843-1.20399-.1686.21943-.5272.38162-.927.47511-.4058-.23725-.8497-.40626-1.3132-.49991-.0044-.25407-.0893-.50062-.243-.70599-.0843.22515-.4273.41215-.8741.57242h-.1451c-2.6929-.07632-3.7414.43313-3.8355 1.21926-.5743-.04771-2.1559.46747-1.372 4.79493.004-.0038.1196.2156.2392.1202zM21.1169 17.2335c-.6546-.2309-1.7952-.1393-1.7952-.1393h-.4057l-2.8086 1.1656-2.7909-1.1694c-.4572-.0281-.916-.0204-1.372.0229.0048-.0056.01-.0107.0157-.0153-.1306.0076-.2613.021-.392.0401l-.6879.1622-.1078.0381-.0941.0325c-1.3719.5361-2.35186 1.7707-2.35186 3.2112v2.9652c0 1.9309 1.73646 3.4956 3.87866 3.4956h7.8397c2.1441 0 3.8786-1.5647 3.8786-3.4956v-2.9632c-.0235-1.5876-1.1994-2.9251-2.8066-3.3506z" fill="#11A63C"/>
</svg>
