<svg width="13" height="13" viewBox="0 0 13 13" fill="none" xmlns="http://www.w3.org/2000/svg">
<path d="M4.29892 5.85437C4.07458 5.63916 4.07458 5.3029 4.29892 5.08769C4.52326 4.87248 4.8738 4.87248 5.09814 5.08769C5.32248 5.3029 5.32248 5.63916 5.09814 5.85437C4.8738 6.06958 4.50924 6.06958 4.29892 5.85437ZM7.87437 7.28013C7.65003 7.49534 7.65003 7.83161 7.87437 8.04682C8.09871 8.26203 8.44925 8.26203 8.67359 8.04682C8.89793 7.83161 8.89793 7.49534 8.67359 7.28013C8.46327 7.07838 8.09871 7.07838 7.87437 7.28013ZM0.148593 5.15494C-0.145856 4.71107 0.00837902 4.2403 0.513148 4.05199C1.0039 3.86368 1.48062 3.68883 1.97137 3.51397C2.06952 3.47362 2.11159 3.43326 2.11159 3.32566C2.12561 2.82799 2.15365 2.33032 2.19571 1.83264C2.23778 1.29462 2.63038 1.03906 3.31742 1.18701C3.66796 1.28117 4.15871 1.40222 4.63543 1.53673C4.76162 1.57708 4.84575 1.55018 4.92988 1.44258C5.23835 1.06596 5.56084 0.689343 5.86931 0.312726C6.21985 -0.104242 6.75266 -0.104242 7.10319 0.312726C7.42569 0.689343 7.74818 1.06596 8.07067 1.45603C8.14078 1.53673 8.19686 1.56363 8.30903 1.53673C8.79978 1.40222 9.30455 1.26772 9.7953 1.14666C10.3281 1.01216 10.7488 1.30807 10.7768 1.83264C10.8048 2.33032 10.8329 2.81454 10.8609 3.31221C10.8609 3.41981 10.903 3.47362 11.0011 3.50052C11.4779 3.66192 11.9406 3.83678 12.4173 4.01164C12.9782 4.2134 13.1464 4.68417 12.8239 5.15494C12.5575 5.55846 12.2771 5.96198 11.9967 6.36549C11.9265 6.45965 11.9265 6.51345 11.9967 6.6076C12.2911 7.01112 12.5715 7.42809 12.852 7.84506C13.1464 8.28893 12.9922 8.7597 12.4734 8.96146C11.9967 9.13632 11.5199 9.31117 11.0432 9.48603C10.9451 9.52638 10.889 9.56674 10.889 9.68779C10.8749 10.1855 10.8329 10.6831 10.8048 11.1808C10.7768 11.6919 10.3421 11.9878 9.82334 11.8533C9.31857 11.7188 8.8138 11.5978 8.30903 11.4633C8.21088 11.4364 8.1548 11.4633 8.09871 11.5305C7.77622 11.9206 7.45373 12.2972 7.13124 12.6873C6.7807 13.1042 6.26191 13.1042 5.89736 12.6873C5.57486 12.3107 5.23835 11.9206 4.92988 11.5305C4.85977 11.4498 4.80369 11.4364 4.70554 11.4633C4.21479 11.5978 3.72404 11.7054 3.24732 11.8533C2.6444 12.0416 2.19571 11.6112 2.20973 11.127C2.20973 10.6562 2.15365 10.172 2.13963 9.70124C2.13963 9.59364 2.09756 9.55329 1.99941 9.51293C1.50867 9.33808 1.01792 9.16322 0.52717 8.97491C0.0504431 8.80005 -0.117813 8.31583 0.148593 7.91231C0.42902 7.48189 0.709448 7.06492 1.0039 6.63451C1.074 6.54035 1.074 6.4731 1.0039 6.39239C0.709448 5.98888 0.42902 5.57191 0.148593 5.15494ZM8.28099 6.36549C7.53786 6.36549 6.92092 6.94387 6.92092 7.6702C6.92092 8.38308 7.52384 8.97491 8.28099 8.97491C9.02412 8.97491 9.64106 8.39653 9.64106 7.6702C9.64106 6.94387 9.02412 6.36549 8.28099 6.36549ZM4.45315 8.43689C4.34098 8.57139 4.355 8.77315 4.49522 8.88076C4.63543 8.98836 4.84575 8.97491 4.95792 8.8404L8.51935 4.72452C8.63152 4.59002 8.6175 4.38826 8.47729 4.28065C8.33708 4.17305 8.12675 4.1865 8.01458 4.321L4.45315 8.43689ZM3.33144 5.4643C3.33144 6.19064 3.93436 6.76901 4.69152 6.76901C5.43465 6.76901 6.05159 6.19064 6.05159 5.4643C6.05159 4.75142 5.44867 4.1596 4.69152 4.1596C3.94839 4.17305 3.33144 4.75142 3.33144 5.4643Z" fill="#11A63C"/>
</svg>
