<svg width="29" height="29" viewBox="0 0 29 29" fill="none" xmlns="http://www.w3.org/2000/svg">
<path d="M9.5899 13.0598C9.08944 12.5797 9.08944 11.8295 9.5899 11.3495C10.0904 10.8694 10.8723 10.8694 11.3728 11.3495C11.8732 11.8295 11.8732 12.5797 11.3728 13.0598C10.8723 13.5398 10.0591 13.5398 9.5899 13.0598ZM17.5659 16.2403C17.0654 16.7204 17.0654 17.4705 17.5659 17.9506C18.0664 18.4307 18.8483 18.4307 19.3488 17.9506C19.8492 17.4705 19.8492 16.7204 19.3488 16.2403C18.8796 15.7902 18.0664 15.7902 17.5659 16.2403ZM0.331476 11.4995C-0.325371 10.5093 0.0186917 9.45913 1.14472 9.03906C2.23946 8.61899 3.30293 8.22892 4.39767 7.83885C4.61662 7.74884 4.71046 7.65882 4.71046 7.41878C4.74174 6.30859 4.80429 5.1984 4.89813 4.0882C4.99196 2.888 5.86776 2.3179 7.40041 2.64796C8.18237 2.85799 9.27711 3.12804 10.3406 3.42809C10.6221 3.51811 10.8098 3.4581 10.9974 3.21805C11.6856 2.37791 12.405 1.53777 13.0931 0.69762C13.875 -0.23254 15.0636 -0.23254 15.8456 0.69762C16.565 1.53777 17.2844 2.37791 18.0038 3.24806C18.1602 3.42809 18.2853 3.4881 18.5355 3.42809C19.6303 3.12804 20.7563 2.82799 21.851 2.55794C23.0396 2.25789 23.978 2.918 24.0405 4.0882C24.1031 5.1984 24.1657 6.27858 24.2282 7.38877C24.2282 7.62882 24.322 7.74884 24.541 7.80885C25.6045 8.16891 26.6367 8.55898 27.7001 8.94904C28.9513 9.39912 29.3266 10.4493 28.6072 11.4995C28.0129 12.3996 27.3873 13.2998 26.7618 14.1999C26.6054 14.41 26.6054 14.53 26.7618 14.74C27.4186 15.6402 28.0442 16.5704 28.6698 17.5005C29.3266 18.4907 28.9825 19.5409 27.8252 19.9909C26.7618 20.381 25.6983 20.7711 24.6348 21.1611C24.4159 21.2512 24.2908 21.3412 24.2908 21.6112C24.2595 22.7214 24.1657 23.8316 24.1031 24.9418C24.0405 26.082 23.0709 26.7421 21.9136 26.4421C20.7876 26.142 19.6616 25.872 18.5355 25.5719C18.3166 25.5119 18.1915 25.5719 18.0664 25.7219C17.347 26.5921 16.6275 27.4322 15.9081 28.3024C15.1262 29.2325 13.9689 29.2325 13.1556 28.3024C12.4362 27.4622 11.6856 26.5921 10.9974 25.7219C10.841 25.5419 10.7159 25.5119 10.497 25.5719C9.40223 25.872 8.30748 26.112 7.24401 26.4421C5.89904 26.8621 4.89813 25.902 4.92941 24.8218C4.92941 23.7716 4.80429 22.6914 4.77302 21.6412C4.77302 21.4012 4.67918 21.3112 4.46023 21.2212C3.36549 20.8311 2.27074 20.441 1.17599 20.021C0.112527 19.6309 -0.262814 18.5507 0.331476 17.6505C0.957045 16.6904 1.58261 15.7602 2.23946 14.8001C2.39585 14.59 2.39585 14.44 2.23946 14.26C1.58261 13.3598 0.957045 12.4296 0.331476 11.4995ZM18.473 14.1999C16.8152 14.1999 15.439 15.4902 15.439 17.1104C15.439 18.7007 16.7839 20.021 18.473 20.021C20.1307 20.021 21.507 18.7307 21.507 17.1104C21.507 15.4902 20.1307 14.1999 18.473 14.1999ZM9.93396 18.8207C9.68373 19.1208 9.71501 19.5709 10.0278 19.8109C10.3406 20.051 10.8098 20.021 11.06 19.7209L19.0047 10.5393C19.2549 10.2393 19.2237 9.78919 18.9109 9.54915C18.5981 9.3091 18.1289 9.33911 17.8787 9.63916L9.93396 18.8207ZM7.43168 12.1896C7.43168 13.8099 8.77666 15.1001 10.4657 15.1001C12.1235 15.1001 13.4997 13.8099 13.4997 12.1896C13.4997 10.5993 12.1547 9.2791 10.4657 9.2791C8.80794 9.3091 7.43168 10.5993 7.43168 12.1896Z" fill="#272A2C"/>
</svg>
