<svg width="50" height="50" fill="none" xmlns="http://www.w3.org/2000/svg">
  <path d="M16.1972 29.7653c-.6601-.6819-1.1293-.6546-1.6367-.1964l-.7147.6875 3.1207 3.2734.7092-.682c.4801-.4637.5456-.9329-.1254-1.6367l-1.3531-1.4458zM21.5602 24.7844c-.6492-.6874-1.1948-.7638-1.7403-.251l-.7257.6984 2.8261 2.9515.5892-.5456c.5456-.5455.6711-1.0911-.0654-1.8822l-.8839-.9711z" fill="#1EA233"/>
  <path d="M45.5271 1.2866L30.5294.964713c-.9348-.01533-1.8381.337377-2.5151.982027L1.81597 27.2121c-.33579.3186-.6051.7005-.79239 1.1238-.187282.4233-.288835.8794-.298754 1.3422-.010081.4613.072078.9199.241651 1.349.169573.4291.423143.82.745833 1.1497L17.2775 48.3312c.6463.6701 1.5322 1.0562 2.4631 1.0736.9309.0174 1.8306-.3354 2.5015-.9809l26.2202-25.2708c.675-.6479 1.0671-1.5361 1.0911-2.4715l.2291-15.00316c.0075-1.1436-.4341-2.24447-1.2299-3.06579-.7958-.82133-1.8822-1.29748-3.0255-1.32605zM20.2562 39.9185l-9.2092-9.6021 2.226-2.1332c1.5112-1.4457 3.0497-1.3202 4.5227.2183l1.2003 1.2493c1.473 1.5331 1.533 3.0825 0 4.5283l-.7093.6874 3.459 3.6062-1.4895 1.4458zm8.3964-8.0472c-.4876-.2611-.918-.6173-1.2657-1.0475l-1.4512-1.5112c-.8511-.8893-1.4676-.933-2.1823-.2728l-.5456.4964 3.7481 3.9118-1.5058 1.4512-9.2092-9.6075 2.2804-2.1823c1.5604-1.5003 2.9298-1.4185 4.3646.0655l.7202.7529c.9493.9875 1.2493 1.9368.8838 2.897 1.0529-.4092 2.0022.0818 2.957 1.0911l1.4239 1.4785c.3518.4227.7886.7666 1.2821 1.0093l-1.5003 1.4676zm2.3623-2.2587l-9.2092-9.6075 1.5112-1.4457 9.2038 9.602-1.5058 1.4512zm6.1595-5.9085l-4.8774-2.6187 2.3951 5.0028-1.4131 1.3531-3.0497-6.5469-6.0449-3.1479 1.5657-1.5004 4.5337 2.4497-2.2313-4.6592 1.4021-1.3421 2.8915 6.1813 6.4268 3.3225-1.5985 1.5058zm7.3052-11.4133c-.5929.5711-1.3419.9537-2.1521 1.0992-.8103.1455-1.6456.0475-2.4002-.2816-.7546-.3291-1.3947-.8746-1.8392-1.5675-.4446-.6929-.6738-1.5021-.6585-2.32518.0152-.82312.2742-1.62323.7442-2.29917.4699-.67593 1.1298-1.19734 1.8961-1.49828.7662-.30095 1.6046-.36793 2.4089-.19246s1.5386.5855 2.1099 1.17825c.3846.39253.6872.85768.8901 1.36834.203.51067.3023 1.05663.2922 1.60606-.0102.54943-.1296 1.09134-.3513 1.59414-.2217.5028-.5413.9565-.9401 1.3345v-.0163z" fill="#1EA233"/>
</svg>
