<svg width="32" height="59" fill="none" xmlns="http://www.w3.org/2000/svg">
  <path d="M.595215 3.54625V54.8299c.002788.8703.347519 1.7047.959875 2.3232.61236.6185 1.44328.9715 2.31355.9829H27.8301c.8707-.01 1.7024-.3626 2.3151-.9814.6127-.6187.9569-1.4539.9583-2.3247V3.54625c-.0099-.86509-.358-1.69194-.9697-2.30369-.6118-.611749-1.4387-.959813-2.3037-.969733H3.86864c-.86465.011304-1.69071.359812-2.30216.971263C.955027 1.85554.606519 2.6816.595215 3.54625zM18.0535 53.7387c0 .4317-.1281.8536-.3678 1.2125-.2398.3588-.5807.6385-.9794.8037-.3988.1652-.8375.2084-1.2609.1242-.4233-.0842-.8122-.292-1.1173-.5972-.3052-.3052-.5131-.6941-.5973-1.1174-.0842-.4233-.041-.8621.1242-1.2609.1652-.3987.4449-.7396.8038-.9794.3589-.2397.7808-.3677 1.2124-.3677.287-.0008.5714.0552.8368.1645.2654.1094.5066.27.7098.4727.2032.2027.3644.4435.4744.7087.1101.2651.1667.5493.1667.8363h-.0054zM28.4193 6.81967V49.3742H3.32307V6.81967H28.4193z" fill="#1EA233"/>
  <path d="M19.0519 25.9146h2.8151v.6984l-.6983.0381v.6711h-.6984v.7038h.6493v.7038h-.6493v.6983h.6493v.7038h-.6547v.6929h1.3694v-.6656h1.4184v.6656h-.6765v.6874h-.6929v4.2336h.682v.6929h-.7037v.7201H19.772l-.0327.6875h-1.3694v-.6547h-.7038v.6437h-1.4239v-.6765h.6819v-.671h-.671v.6819h-2.7988v.6766h-.682v-2.0787h.6765v.682h2.0896v-1.3694h-.6547v-.7092h1.3585v-.6874h.6983v1.3584h-.6547v.6929h1.3585v.6874h.6983v-1.3421h-.6547v-1.4076h.6492v-1.3912h-1.3584v.6438h-.7092v-1.3748h2.7824v-.7256h.6601v-.6602h-1.3912v.6602h-1.3639v-1.4022h1.353v-1.3912h-.6765v-2.7878h.6929v-1.3803h.7256v2.0786h-.682v.6711h.682v-.6984zm2.0895 6.3396h-2.0895v2.0568h2.0622l.0273-2.0568zm-2.0732 3.5025h.6984v.6602h.7037v-.682h.6656v-.6547h-2.084l.0163.6765zm.6711-8.4127h-.6874v.6547h.6601l.0273-.6547zm0 1.4076h-.6874v.6601h.6546l.0328-.6601z" fill="#1EA233"/>
  <path d="M9.23157 31.5613H8.5223v-.6983H7.1366v-.6929h.68196v-.7256h.68196v-.7092h-.68196v-.6983h1.37485v-.7038H7.82948v-.6929l-.69288-.0273v-.6601h2.09497v.6492h1.40213v-.6492h1.424v.6765h-.6875v.671h.6765v-.6819h.6929v-3.4971h1.3912v-1.3912h-1.3585v-1.3967h.6601v.6765h1.424v.682h.6711v-.6711h-.682v-.682h1.3966v.6656h.7038v-.6546h.6929v1.3584h.7038v-.6437h.6929v1.3584h-.6602v.7038h-.7202v-.6656h-.7092v.682h-.7201v-.6711h-1.3585v.6874h.6929v1.4076h-.7311v-.6765h-1.3748v2.0241h.6874v-1.3912h.6929v.6874h.7092v-.6601h.6929v1.4184h-1.4021v1.3967h-2.0787v.7147h1.3858v2.1114h.7038v.6328h.6656v-1.4021h-.6547v-.6492h1.3748v2.7824h-2.0895v-.7311h-1.4239v-.7092h.6819v-.6929h-.6819v-.6983h-.7038v-.6274h-1.4076v.6765H9.23157v1.3748h1.38033v-.6874h.6983v.7038h.6983v.7092h-.7092v.7147h-.6929v.682H9.23157v-.682h.68196v-.7092h-.68196v.6819z" fill="#1EA233"/>
  <path d="M7.1311 25.2164v-4.8611h4.8611v4.8611H7.1311zm4.1627-.6929V21.07H7.84031v3.4535h3.45349zM24.6166 25.2272h-4.861v-4.861h4.861v4.861zm-.6874-4.1572h-3.4698v3.448h3.4698V21.07zM12.003 33.0071v4.861H7.14746v-4.861H12.003zM7.84574 33.7v3.4534h3.45346V33.7H7.84574zM13.427 35.7677V34.371h-.682v-.6928h.6547v-.7038h-.6438v-.6929h2.0568v.6547h.6875v.7092h-1.3585v2.0896h-.7256l.0109.0327zM23.2472 27.3494v-1.3748h1.3694v2.0568h-.6547v-.6929h-.7201l.0054.0109zM23.2418 30.1592v-.6929h.682l.0327-.6929h.6546v2.0514h-.6492v-.6874h-.7256l.0055.0218z" fill="#1EA233"/>
  <path d="M23.2364 27.3386v.6983h-.6765l-.0382.6929h-.6656v-2.1059h.6874v.7147h.7147-.0218zM22.5435 35.7677v-.6984h1.4184v.6656h.6875v.6929h-1.364v-.6929h-.7256l-.0163.0328zM17.628 23.1323v2.1059h-.7148v-.6983h-.6982v-.7202h.7037v-.6929h.7093v.0055zM23.9619 32.2651h.682v1.4021h-.682v-1.4294.0273zM8.51145 31.5504v.6765H7.1366v-.6656h1.3857l-.01085-.0109zM23.9619 35.0693v-.7147h.682v.6929h-.682v.0218z" fill="#1EA233"/>
  <path d="M23.962 34.3546h-.6765v-.6765h.6765v.6983-.0218zM23.962 32.2487h-.6765v-.6656h.6765v.682-.0164zM21.8287 37.1697h.682v.6711h-.671v-.682l-.011.0109zM23.9619 37.1807h.6547v.6547h-.6547v-.6547zM12.014 31.5504v.6765h-.6875v-.6765h.7093-.0218zM7.81859 29.4445h-.6765v-.6874h.6765v.7092-.0218zM12.7177 30.8248v.7038h-.7038v-.7038h.7147-.0109zM14.8182 27.3549h.682v.6711h-.671v-.682l-.011.0109zM19.7502 33.629v-.6219h.6547v.6492l-.6547-.0273zM12.0248 29.4553h-.7092v-.7092h.7092v.7092z" fill="#1EA233"/>
  <path d="M12.374 30.3065c.2772 0 .502-.2248.502-.502s-.2248-.5019-.502-.5019-.5019.2247-.5019.5019.2247.502.5019.502zM10.601 21.7573v2.0568H8.5387v-2.0568h2.0623zM23.22 21.7628v2.0623h-2.0568v-2.0623H23.22zM10.601 34.3873v2.0568H8.54419v-2.0568H10.601z" fill="#1EA233"/>
</svg>
