<svg width="45" height="59" fill="none" xmlns="http://www.w3.org/2000/svg">
  <path d="M22.4428 46.7772c4.5119-7.9108 1.9204-10.7259 1.4185-11.3097.4331-.3024.7584-.735.9287-1.235.1702-.5.1765-1.0413.018-1.5451-.1585-.5039-.4735-.944-.8994-1.2565s-.9403-.4809-1.4685-.4809c-.5282 0-1.0426.1684-1.4685.4809-.4258.3125-.7409.7526-.8994 1.2565-.1585.5038-.1522 1.0451.0181 1.5451.1702.5.4956.9326.9286 1.235-.4965.5838-3.0825 3.3989 1.4239 11.3097zM10.1348 19.1768c.6493 3.2462 3.0116 5.7121 4.5119 6.9888 2.4714 2.1113 5.4994 3.5298 7.5289 3.5298 2.2423 0 5.2756-1.3857 7.7252-3.5353 2.3351-2.0459 3.8191-4.4464 4.3101-6.9069.1989-.1185.3822-.2615.5455-.4256 0 0 2.7006-8.1835-1.2766-13.29551.7147-1.49487.2346-3.44255.2346-3.44255-.4692.6274-1.4676 1.09114-2.5806 1.35847-1.1295-.67838-2.3652-1.16161-3.6553-1.4294C27.4661 1.29215 27.2299.58721 26.802 0c-.2346.643773-1.1893 1.17843-2.4332 1.63671h-.4038c-7.4961-.21823-10.4149 1.23845-10.6768 3.4862-1.5985-.13639-6.00126 1.33665-3.81898 13.71019.01091-.0109.33282.6165.66558.3437zm4.5446-11.40242c2.8534 1.30937 7.3762-.61104 14.0703 0 3.7153.39827 3.9117 5.91942 3.9117 9.71112 0 5.734-6.9451 10.4805-10.4858 10.4805-2.9516 0-10.4804-4.6483-10.4804-10.4805 0-3.6389.1582-7.8289 2.9679-9.71112h.0163z" fill="#1EA233"/>
  <path d="M36.3768 30.3174c-1.8222-.6601-4.9974-.3983-4.9974-.3983H30.25l-7.7853 21.3155-7.8016-21.3264c-1.2727-.0802-2.5498-.0583-3.819.0655.0131-.0159.0277-.0305.0436-.0436-.3637.0218-.7274.06-1.09111.1145l-1.91496.4638-.30006.1091-.26189.0927c-3.819 1.5331-6.546853 5.0629-6.546853 9.182v8.4781c0 5.5212 4.833773 9.9949 10.796873 9.9949h21.8228c5.9686 0 10.7969-4.4737 10.7969-9.9949v-8.4727c-.0655-4.5391-3.3389-8.3636-7.8126-9.5802z" fill="#1EA233"/>
  <path d="M28.2696 45.5007c.4147-.8457.8293-1.6968 1.2494-2.5424.2601.7517.5984 1.4739 1.0093 2.155-.7729-.0508-1.5469.0819-2.2587.3874zm12.3245.8292l-.9766-2.0295c.0017-.0145.0017-.0291 0-.0436-.0368-.0562-.0893-.1004-.151-.1271-.0616-.0267-.1297-.0347-.1959-.0231-.0662.0116-.1275.0423-.1764.0884-.0489.0461-.0832.1055-.0987.1709-.0023.0126-.0023.0255 0 .0382-.0436.1309-.0927.2618-.1418.3928-.1583.3993-.3537.7829-.5838 1.1457-.6437 1.0093-1.6367 2.035-2.8424 2.1277-2.3678.1746-3.9772-2.3241-4.8556-4.25-.2621-.5564-.4792-1.1329-.6492-1.724-.0294-.0528-.0713-.0977-.1221-.1306-.0507-.0329-.1087-.053-.169-.0583-.0602-.0054-.1209.004-.1766.0274-.0558.0234-.105.0602-.1433.1069l-2.1114 4.2991c0 .0382-.2455.431.2892.431.5346 0 .8729-1.3257 3.2734-1.3257.2961.443.6282.8609.9929 1.2494.8839.922 2.0514 1.7131 3.3444 1.7349.6767-.0187 1.3396-.1957 1.9356-.5169.5959-.3212 1.1083-.7776 1.496-1.3326.3419-.4472.6277-.9345.8511-1.4512l.6983 1.4676c.0321.0531.0802.0947.1373.1189.0572.0242.1205.0298.181.0159.0604-.0139.115-.0466.1558-.0933.0408-.0468.0659-.1052.0715-.167-.001-.0497-.0141-.0984-.0382-.1419M11.8043 40.3068H9.94389v2.957H7.07422v1.8549h2.86967v2.7988h1.86041v-2.7988h2.8752v-1.8549h-2.8752v-2.957z" fill="#F6F6F6"/>
  <path d="M26.8838 22.8867c.1096-.1646.1564-.3632.1318-.5594-.0247-.1963-.1191-.3771-.266-.5095-.147-.1324-.3366-.2074-.5344-.2115-.1977-.0041-.3903.063-.5426.1892-.4481.4787-.9897.8603-1.5912 1.1212-.6015.2609-1.2502.3955-1.9059.3955s-1.3044-.1346-1.9059-.3955c-.6016-.2609-1.1431-.6425-1.5912-1.1212-.1523-.1262-.3449-.1933-.5427-.1892-.1977.0041-.3874.0791-.5343.2115-.147.1324-.2414.3132-.266.5095-.0246.1962.0222.3948.1318.5594.6028.6452 1.3318 1.1597 2.1418 1.5114.8099.3517 1.6835.5332 2.5665.5332s1.7566-.1815 2.5665-.5332c.81-.3517 1.539-.8662 2.1418-1.5114z" fill="#1EA233"/>
</svg>
