<svg width="17" height="13" viewBox="0 0 17 13" fill="none" xmlns="http://www.w3.org/2000/svg">
<path d="M11.7854 4.54655C11.8758 5.00522 12.2047 5.35365 12.4136 5.53404C12.7577 5.83237 13.1792 6.0328 13.4618 6.0328C13.774 6.0328 14.1963 5.83699 14.5374 5.53327C14.8625 5.24419 15.0691 4.905 15.1374 4.55734C15.1651 4.54059 15.1906 4.52039 15.2134 4.49721C15.2134 4.49721 15.5894 3.34089 15.0356 2.61858C15.1352 2.40736 15.0683 2.13216 15.0683 2.13216C15.003 2.22081 14.864 2.28634 14.709 2.32411C14.5518 2.22825 14.3797 2.15998 14.2001 2.12214C14.1984 2.01949 14.1655 1.91989 14.1059 1.83691C14.0733 1.92788 13.9403 2.00342 13.7671 2.06818H13.7109C12.6673 2.03734 12.2609 2.24317 12.2244 2.56077C12.0019 2.5415 11.3889 2.74963 11.6927 4.49798C11.6943 4.49644 11.7391 4.58509 11.7854 4.54655Z" fill="#11A63C"/>
<path d="M15.439 6.12065C15.1853 6.02737 14.7432 6.06437 14.7432 6.06437H14.5859L13.4975 6.5353L12.4158 6.06283C12.2386 6.0515 12.0608 6.05459 11.8841 6.07208C11.886 6.06984 11.888 6.06777 11.8902 6.06591C11.8396 6.069 11.7889 6.07439 11.7383 6.0821L11.4717 6.14763L11.4299 6.16304L11.3934 6.17615C10.8617 6.39277 10.4819 6.89152 10.4819 7.47354V8.67148C10.4819 9.45161 11.1549 10.0837 11.9851 10.0837H15.0235C15.8544 10.0837 16.5267 9.45161 16.5267 8.67148V7.47431C16.5176 6.83294 16.0618 6.29255 15.439 6.12065Z" fill="#11A63C"/>
<path d="M2.19336 4.54655C2.28375 5.00522 2.61265 5.35365 2.82153 5.53404C3.16562 5.83237 3.58719 6.0328 3.86976 6.0328C4.18194 6.0328 4.60427 5.83699 4.94532 5.53327C5.27042 5.24419 5.47703 4.905 5.54539 4.55734C5.57308 4.54059 5.5986 4.52039 5.62135 4.49721C5.62135 4.49721 5.99734 3.34089 5.4436 2.61858C5.54311 2.40736 5.47627 2.13216 5.47627 2.13216C5.41094 2.22081 5.27194 2.28634 5.11699 2.32411C4.95973 2.22825 4.78768 2.15998 4.60807 2.12214C4.60634 2.01949 4.57345 1.91989 4.51388 1.83691C4.48122 1.92788 4.34829 2.00342 4.1751 2.06818H4.1189C3.07523 2.03734 2.66886 2.24317 2.6324 2.56077C2.40984 2.5415 1.79686 2.74963 2.10069 4.49798C2.10221 4.49644 2.14703 4.58509 2.19336 4.54655Z" fill="#11A63C"/>
<path d="M5.84692 6.12065C5.59322 6.02737 5.15114 6.06437 5.15114 6.06437H4.99391L3.90541 6.5353L2.82379 6.06283C2.64659 6.0515 2.46879 6.05459 2.29208 6.07208C2.29391 6.06984 2.29595 6.06777 2.29816 6.06591C2.24752 6.069 2.19688 6.07439 2.14624 6.0821L1.87963 6.14763L1.83785 6.16304L1.80139 6.17615C1.26968 6.39277 0.889893 6.89152 0.889893 7.47354V8.67148C0.889893 9.45161 1.56288 10.0837 2.39311 10.0837H5.43143C6.26241 10.0837 6.93464 9.45161 6.93464 8.67148V7.47431C6.92552 6.83294 6.46977 6.29255 5.84692 6.12065Z" fill="#11A63C"/>
<path d="M10.3714 2.0405C10.3526 2.066 10.29 2.11013 10.1772 2.14818C10.0448 2.07648 9.90545 2.01875 9.76141 1.97587C9.73539 1.87404 9.6906 1.77735 9.62868 1.69111L9.35113 1.30454L9.19378 1.74277C9.18972 1.7471 9.17774 1.75897 9.15021 1.77687C9.10899 1.80369 9.05062 1.83255 8.97533 1.86254H8.95851C8.32772 1.84416 7.85871 1.89538 7.5323 2.01582C7.27442 2.11097 7.08178 2.26071 6.98976 2.46732C6.79223 2.51346 6.56861 2.64998 6.41047 2.94636C6.20071 3.33949 6.11871 3.99003 6.30314 5.0513L6.38636 5.5302L6.50062 5.41424C6.68116 5.89115 7.02618 6.24339 7.245 6.43238C7.46633 6.62425 7.71324 6.78542 7.95335 6.89964C8.18938 7.01192 8.43763 7.08777 8.65791 7.08777C9.11419 7.08777 9.67441 6.81352 10.1061 6.4291C10.497 6.08144 10.7672 5.66691 10.8784 5.22524C10.8942 5.21173 10.9094 5.19752 10.924 5.18266L10.9651 5.14074L10.9833 5.08489L10.7455 5.00758C10.9833 5.08489 10.9833 5.08481 10.9833 5.08473L10.9834 5.08454L10.9836 5.08406L10.984 5.08272L10.9853 5.07856L10.9897 5.06437C10.9933 5.05237 10.9983 5.03534 11.0043 5.01376C11.0163 4.97063 11.0324 4.90913 11.0493 4.83302C11.083 4.68126 11.1208 4.46907 11.1366 4.22719C11.1653 3.78748 11.1239 3.21157 10.8124 2.73039C10.8479 2.59804 10.8517 2.46925 10.8474 2.37306C10.8443 2.30476 10.8368 2.2461 10.83 2.20403C10.8266 2.18287 10.8233 2.16559 10.8207 2.153L10.8174 2.13765L10.8163 2.13275L10.8159 2.13103L10.8157 2.13035L10.8156 2.13006L10.8156 2.12992C10.8156 2.12986 10.8156 2.1298 10.5726 2.1888L10.8156 2.1298L10.6891 1.60926L10.3714 2.0405ZM6.34417 5.15062L6.34445 5.15104L6.34417 5.15062Z" fill="#11A63C" stroke="white" stroke-width="0.5"/>
<path d="M10.1917 6.62426L10.1756 6.6254H9.99756H9.9458L9.8983 6.64595L8.70072 7.16407L7.51118 6.64446L7.47152 6.62714L7.52572 6.58165L6.76944 6.6277C6.70151 6.63183 6.63367 6.63907 6.56595 6.64938L6.55484 6.65107L6.54391 6.65375L6.22615 6.73185L6.21247 6.73521L6.19926 6.74009L6.15047 6.75809L6.10801 6.77335L6.10794 6.77315L6.09824 6.77709C5.38233 7.06876 4.8562 7.74729 4.8562 8.55491V9.98267C4.8562 11.065 5.78518 11.9159 6.8978 11.9159H10.519C11.6326 11.9159 12.5606 11.0649 12.5606 9.98267V8.55583H12.5606L12.5606 8.55227C12.548 7.66949 11.9244 6.93858 11.0903 6.70414C10.8988 6.63623 10.661 6.62017 10.4904 6.61728C10.3994 6.61574 10.3188 6.61792 10.2609 6.62049C10.2319 6.62178 10.2083 6.62317 10.1917 6.62426Z" fill="#11A63C" stroke="white" stroke-width="0.5"/>
</svg>
