<svg width="35" height="25" viewBox="0 0 35 25" fill="none" xmlns="http://www.w3.org/2000/svg">
<path d="M24.3875 8.06494C24.5899 9.09158 25.326 9.87149 25.7936 10.2752C26.5637 10.943 27.5073 11.3916 28.1398 11.3916C28.8386 11.3916 29.7838 10.9533 30.5472 10.2735C31.2749 9.62647 31.7373 8.86728 31.8904 8.0891C31.9523 8.05162 32.0095 8.00641 32.0604 7.95451C32.0604 7.95451 32.9019 5.36635 31.6625 3.7496C31.8852 3.27683 31.7356 2.66085 31.7356 2.66085C31.5894 2.85927 31.2783 3.00594 30.9315 3.09048C30.5795 2.87593 30.1944 2.72311 29.7923 2.63841C29.7885 2.40866 29.7149 2.18571 29.5815 2C29.5084 2.2036 29.2109 2.3727 28.8233 2.51763H28.6974C26.3614 2.44862 25.4518 2.90931 25.3702 3.62019C24.8721 3.57706 23.5 4.04293 24.1801 7.95624C24.1835 7.95279 24.2838 8.15122 24.3875 8.06494Z" fill="#272A2C"/>
<path d="M32.5655 11.5882C31.9976 11.3794 31.0081 11.4622 31.0081 11.4622H30.6562L28.2198 12.5163L25.7988 11.4588C25.4022 11.4334 25.0042 11.4404 24.6087 11.4795C24.6128 11.4745 24.6174 11.4699 24.6223 11.4657C24.509 11.4726 24.3956 11.4847 24.2823 11.5019L23.6855 11.6486L23.592 11.6831L23.5104 11.7124C22.3203 12.1973 21.4702 13.3137 21.4702 14.6164V17.2977C21.4702 19.0439 22.9766 20.4587 24.8348 20.4587H31.6355C33.4955 20.4587 35.0001 19.0439 35.0001 17.2977V14.6181C34.9797 13.1825 33.9596 11.973 32.5655 11.5882Z" fill="#272A2C"/>
<path d="M2.91732 8.06494C3.11964 9.09158 3.8558 9.87149 4.32335 10.2752C5.09352 10.943 6.03712 11.3916 6.66958 11.3916C7.36835 11.3916 8.31363 10.9533 9.077 10.2735C9.80467 9.62647 10.2671 8.86728 10.4201 8.0891C10.4821 8.05162 10.5392 8.00641 10.5902 7.95451C10.5902 7.95451 11.4317 5.36635 10.1923 3.7496C10.415 3.27683 10.2654 2.66085 10.2654 2.66085C10.1192 2.85927 9.80808 3.00594 9.46124 3.09048C9.10925 2.87593 8.72416 2.72311 8.32213 2.63841C8.31827 2.40866 8.24465 2.18571 8.11131 2C8.03821 2.2036 7.74067 2.3727 7.35304 2.51763H7.22723C4.8912 2.44862 3.98162 2.90931 3.90001 3.62019C3.40186 3.57706 2.02983 4.04293 2.7099 7.95624C2.7133 7.95279 2.81361 8.15122 2.91732 8.06494Z" fill="#272A2C"/>
<path d="M11.0953 11.5882C10.5274 11.3794 9.53792 11.4622 9.53792 11.4622H9.18598L6.7496 12.5163L4.32862 11.4588C3.932 11.4334 3.53403 11.4404 3.1385 11.4795C3.1426 11.4745 3.14716 11.4699 3.15211 11.4657C3.03876 11.4726 2.92542 11.4847 2.81207 11.5019L2.21532 11.6486L2.12181 11.6831L2.04019 11.7124C0.850081 12.1973 0 13.3137 0 14.6164V17.2977C0 19.0439 1.50635 20.4587 3.36463 20.4587H10.1653C12.0253 20.4587 13.5299 19.0439 13.5299 17.2977V14.6181C13.5095 13.1825 12.4894 11.973 11.0953 11.5882Z" fill="#272A2C"/>
<path d="M21.4711 2.63933C21.3612 2.78848 21.1027 2.93322 20.7517 3.03143C20.3876 2.82101 19.997 2.66199 19.5906 2.55872C19.5546 2.30525 19.4582 2.0632 19.3081 1.85419L19.0306 1.46763L18.8697 1.91551C18.8537 1.9601 18.7984 2.03345 18.6574 2.12512C18.5305 2.20766 18.3601 2.28844 18.1555 2.36694H18.055C16.6541 2.32581 15.6501 2.44157 14.9744 2.69087C14.3828 2.90917 14.0122 3.24451 13.8814 3.68532C13.4946 3.72749 12.9856 3.96139 12.6294 4.62899C12.2085 5.4179 12.0124 6.79031 12.421 9.14174L12.5043 9.62066L12.6681 9.45434C12.6825 9.46261 12.698 9.47039 12.7146 9.47724C13.0221 10.6832 13.8857 11.5846 14.4268 12.0519C14.902 12.4639 15.4314 12.8091 15.9427 13.0523C16.4499 13.2936 16.9579 13.4434 17.3867 13.4434C18.3037 13.4434 19.4872 12.8801 20.4222 12.0475C21.2906 11.2753 21.8663 10.3624 22.0804 9.40832C22.1365 9.36726 22.1891 9.32167 22.2379 9.27196L22.279 9.23003L22.2972 9.17418L22.0594 9.09688C22.2972 9.17418 22.2972 9.1741 22.2972 9.174L22.2973 9.17375L22.2975 9.17304L22.2983 9.17078L22.3008 9.16292L22.3096 9.13423C22.3171 9.10947 22.3277 9.0736 22.3405 9.02765C22.3661 8.93577 22.4006 8.80344 22.4371 8.63901C22.5101 8.31061 22.5917 7.85178 22.6258 7.32996C22.6908 6.33366 22.5854 5.06656 21.8696 4.05016C21.9744 3.75555 21.9886 3.44783 21.9781 3.21393C21.9719 3.07537 21.9567 2.9562 21.9429 2.87119C21.936 2.82856 21.9294 2.79419 21.9244 2.76989C21.9219 2.75773 21.9198 2.74806 21.9182 2.74111L21.9163 2.73275L21.9157 2.73015L21.9155 2.72925L21.9154 2.7289L21.9154 2.72875C21.9153 2.72869 21.9153 2.72862 21.6724 2.78763L21.9153 2.72862L21.7889 2.20808L21.4711 2.63933Z" fill="#272A2C" stroke="white" stroke-width="0.5"/>
<path d="M20.7999 13.0272L20.7955 13.0275H20.3858H20.334L20.2865 13.0481L17.4825 14.2612L14.6966 13.0443L14.6564 13.0267L14.6125 13.0239C14.3789 13.009 14.1449 13.0032 13.9111 13.0065L13.9354 12.9861L13.1791 13.0321C13.0365 13.0408 12.8939 13.056 12.7514 13.0777L12.7403 13.0794L12.7294 13.0821L12.0182 13.2569L12.0045 13.2602L11.9913 13.2651L11.8808 13.3059L11.7845 13.3405L11.7845 13.3403L11.7748 13.3442C10.2741 13.9556 9.1875 15.3702 9.1875 17.0368V20.2325C9.1875 22.4662 11.1097 24.25 13.4476 24.25H21.553C23.893 24.25 25.8131 22.4662 25.8131 20.2325L25.8131 17.0388L25.8131 17.0353C25.7871 15.206 24.4908 13.6776 22.7377 13.1894C22.3585 13.0525 21.8639 13.0158 21.4837 13.0093C21.2878 13.006 21.1139 13.0107 20.989 13.0163C20.9265 13.019 20.876 13.022 20.8408 13.0243L20.7999 13.0272Z" fill="#272A2C" stroke="white" stroke-width="0.5"/>
</svg>
