<svg width="37" height="26" fill="none" xmlns="http://www.w3.org/2000/svg">
  <path d="M25.7812 8.34062c.2139 1.07331.9921 1.88868 1.4864 2.31078.8142.6981 1.8117 1.1671 2.4803 1.1671.7387 0 1.738-.4582 2.545-1.1689.7692-.67647 1.2581-1.47018 1.4199-2.28372.0655-.03919.1259-.08645.1797-.14071 0 0 .8897-2.70581-.4206-4.39604.2355-.49426.0773-1.13825.0773-1.13825-.1546.20745-.4835.36078-.8501.44917-.3721-.2243-.7792-.38408-1.2042-.47262-.0041-.24019-.0819-.47327-.2229-.66743-.0773.21286-.3918.38964-.8016.54116h-.133c-2.4695-.07215-3.4311.40948-3.5174 1.15268-.5266-.0451-1.977.44195-1.2581 4.53314.0036-.00361.1097.20384.2193.11364zM34.4263 12.0241c-.6003-.2183-1.6463-.1317-1.6463-.1317h-.3721l-2.5756 1.102-2.5593-1.1056c-.4193-.0265-.84-.0193-1.2581.0216.0043-.0052.0091-.01.0143-.0144-.1198.0072-.2396.0199-.3594.0379l-.6309.1533-.0988.0361-.0863.0307c-1.2581.5069-2.1568 1.674-2.1568 3.0359v2.8032c0 1.8255 1.5924 3.3047 3.5569 3.3047h7.1893c1.9662 0 3.5569-1.4792 3.5569-3.3047v-2.8014c-.0216-1.5008-1.1-2.7653-2.5738-3.1676zM3.08418 8.34062c.21388 1.07331.99211 1.88868 1.48637 2.31078.81419.6981 1.8117 1.1671 2.48031 1.1671.73869 0 1.73799-.4582 2.54499-1.1689.76925-.67647 1.25815-1.47018 1.41985-2.28372.0656-.03919.1259-.08645.1798-.14071 0 0 .8896-2.70581-.4206-4.39604.2354-.49426.0773-1.13825.0773-1.13825-.1546.20745-.4835.36078-.8502.44917-.37206-.2243-.77916-.38408-1.20416-.47262-.00408-.24019-.08191-.47327-.22287-.66743-.07728.21286-.39181.38964-.8016.54116h-.133c-2.46951-.07215-3.43108.40948-3.51735 1.15268-.52661-.0451-1.97704.44195-1.25812 4.53314.0036-.00361.10965.20384.21928.11364zM11.7293 12.0241c-.6003-.2183-1.6464-.1317-1.6464-.1317h-.37201l-2.57559 1.102-2.55933-1.1056c-.41928-.0265-.84-.0193-1.25812.0216.00433-.0052.00914-.01.01438-.0144-.11982.0072-.23964.0199-.35947.0379l-.63085.1533-.09885.0361-.08628.0307C.898657 12.6609 0 13.828 0 15.1899v2.8032c0 1.8255 1.59243 3.3047 3.55689 3.3047h7.18931c1.9662 0 3.5568-1.4792 3.5568-3.3047v-2.8014c-.0215-1.5008-1.0999-2.7653-2.5737-3.1676z" fill="#11A63C"/>
  <path d="M22.7103 2.67406c-.1195.16033-.3992.31377-.775.41688-.3881-.22252-.8049-.39015-1.2384-.49822-.037-.2663-.1389-.52054-.2979-.7396l-.2766-.381-.1607.44256c-.0181.04976-.0791.12833-.2293.22497-.136.08745-.3183.17272-.5363.25533h-.1097c-1.4803-.043-2.5392.07808-3.2505.33764-.6253.22816-1.0146.57859-1.1497 1.03956-.4047.04066-.9442.28047-1.322.98063-.4435.82195-.6511 2.25436-.2193 4.71207l.0834.47437.1611-.16167c.0193.01176.0408.02276.0643.03188.3231 1.26054 1.2357 2.20294 1.8076 2.69144.5016.4301 1.0602.7903 1.5995 1.044.5351.2517 1.0696.4073 1.5194.4073.9637 0 2.2112-.5861 3.1985-1.4556.9173-.8067 1.525-1.7606 1.7502-2.75726.06-.04316.1164-.09125.1685-.14381l.0416-.04191.0184-.05607-.2375-.07809c.2375.07809.2375.078.2376.07791l.0001-.00026.0002-.00073.0008-.00235.0026-.00817.0093-.0299c.0079-.02582.0191-.06326.0326-.11123.027-.09591.0634-.2341.102-.40583.0771-.34301.1633-.82223.1993-1.36723.0688-1.04237-.0433-2.36653-.8004-3.42691.1115-.3077.1268-.63002.1157-.87526-.0066-.14446-.0226-.26871-.0371-.35733-.0073-.04444-.0143-.08024-.0195-.10554-.0027-.01266-.0049-.02271-.0065-.02992l-.002-.00866-.0007-.00269-.0002-.00092-.0001-.00036v-.00015c0-.00006 0-.00013-.2428.0595l.2428-.05963-.1265-.5149-.3168.42516z" fill="#11A63C" stroke="#fff" stroke-width="0.5"/>
  <path d="M21.9895 13.5397l-.0053.0004h-.485l-.0471.0202-2.9709 1.2711-2.9516-1.2751-.04-.0172-.0434-.0028c-.2579-.0163-.5163-.0222-.7745-.0176l.0238-.0197-.7625.0459c-.1503.009-.3005.0249-.4506.0475l-.011.0016-.0108.0027-.7519.1827-.0135.0033-.0132.0048-.1168.0426-.1018.0362-.0001-.0002-.0096.0039c-1.5808.6369-2.72714 2.1114-2.72714 3.8502v3.3411c0 2.3308 2.02754 4.1887 4.48924 4.1887h8.5685c2.464 0 4.4893-1.858 4.4893-4.1887V17.7188c-.0275-1.909-1.3952-3.5019-3.242-4.0102-.3981-.1423-.919-.1808-1.3207-.1875-.2068-.0035-.3902.0014-.522.0072-.066.0029-.1192.006-.1563.0084l-.0431.003z" fill="#11A63C" stroke="#fff" stroke-width="0.5"/>
</svg>
