<svg width="122" height="42" fill="none" xmlns="http://www.w3.org/2000/svg">
  <g clip-path="url(#clip0)">
    <path d="M8.29603 9.95376c-.18337 0-.36674-.09104-.48899-.21243L1.84748 2.57948v6.76734c0 .33382-.27506.60694-.61124.60694-.336183 0-.61124-.27312-.61124-.60694V.880057c0-.273121.152809-.515896.3973-.57659.2445-.09104.51956 0 .67237.182081L7.65423 7.6474V.880057c0-.333815.27506-.606937.61124-.606937s.61124.273122.61124.606937V9.34682c0 .27312-.18337.48555-.39731.57659-.06112.03035-.12224.03035-.18337.03035zM15.906 1.30493c-.5196 0-1.0086.09104-1.4976.30346-.4584.18209-.8863.45521-1.2224.81937-.3668.33381-.6418.75867-.8252 1.21387-.2139.4552-.3056.94075-.3056 1.45665 0 .51589.0917.9711.3056 1.45665.1834.4552.4584.84971.8252 1.21387.7335.72832 1.6809 1.12283 2.72 1.12283 1.0085 0 1.9559-.39451 2.6894-1.12283.3362-.33382.6113-.75867.7946-1.21387.1834-.45521.2751-.9711.2751-1.45665 0-1.00145-.3668-1.97254-1.0697-2.67052-.7335-.72833-1.6809-1.12283-2.6894-1.12283zm-.0306 8.83097c-.6723 0-1.3447-.1214-1.9559-.39456-.6113-.27312-1.1308-.60693-1.6198-1.09248-.4585-.4552-.8252-1.00145-1.0697-1.60838-.2445-.60694-.3973-1.27457-.3973-1.9422s.1222-1.33526.3973-1.9422c.2445-.57659.6418-1.12283 1.1002-1.57803.4585-.45521 1.0086-.819367 1.6198-1.092488.6418-.273122 1.2836-.394509 1.9865-.394509 1.3448 0 2.5978.515896 3.5452 1.486997.4584.4552.7946 1.00144 1.0391 1.57803.2445.60694.3973 1.27457.3973 1.9422s-.1222 1.33526-.3973 1.9422c-.2445.60693-.6112 1.15318-1.0696 1.60838-.978.94075-2.2311 1.48704-3.5758 1.48704zM23.3936 9.92342c-.3362 0-.6113-.27312-.6113-.60693V.849723c0-.333815.2751-.606937.6113-.606937h3.6674c.0611 0 .3362 0 .7335.091041.5501.121387 1.0085.394509 1.3753.758673.275.27312.489.60693.6418.9711.1834.42485.2445.9104.2445 1.4263 0 1.15318-.489 2.06358-1.4059 2.57948-.2139.12138-.4584.24277-.7335.30346.5196.45521 1.0086 1.0318 1.4059 1.69943.3056.54624.6724.54624.7029.54624.3362-.03035.6418.18208.7029.5159.0612.33381-.1833.66763-.5195.69797-.0917 0-.3668.03035-.7641-.09104-.3361-.12139-.8251-.39451-1.1919-1.06214-.4278-.72832-.9474-1.30491-1.5892-1.69942-.4279-.27312-.764-.36416-.764-.36416-.3057-.06069-.5196-.33382-.489-.66763.0305-.33382.3056-.54624.6112-.54624.8863 0 1.5587-.12139 2.0171-.39451.5501-.30347.7946-.78902.7946-1.51734 0-.48555-.0917-.91041-.2751-1.21388-.1222-.24277-.3056-.42485-.5806-.57659-.4279-.24277-.8863-.27312-.9169-.27312h-3.0562v7.82948c0 .36417-.275.66763-.6112.66763zM41.578 9.86273c-.3362 0-.6113-.27312-.6113-.60694V2.67053l-3.0256 4.15751c-.1223.15174-.3056.24278-.489.24278s-.3667-.09104-.5195-.24278l-3.0257-4.15751v6.58526c0 .33382-.275.60694-.6112.60694-.3362 0-.6113-.27312-.6113-.60694V.789025c0-.273121.1834-.515896.4279-.576589.2445-.091041.5196 0 .7029.212427l3.6369 5.007227L41.089.424863c.1528-.212427.4278-.303468.7029-.212427.2445.09104.4279.333815.4279.576589V9.25579c-.0306.33382-.3057.60694-.6418.60694zM64.3771 9.95376c-.1834 0-.3667-.09104-.489-.21243l-5.9596-7.16185v6.76734c0 .33382-.275.60694-.6112.60694-.3362 0-.6112-.27312-.6112-.60694V.880057c0-.273121.1528-.485549.3973-.57659.2445-.09104.5195 0 .6723.182081L63.7353 7.6474V.880057c0-.333815.2751-.606937.6112-.606937.3362 0 .6113.273122.6113.606937V9.34682c0 .27312-.1834.48555-.3973.57659-.0611.03035-.1223.03035-.1834.03035zM68.1668 8.6792h2.445c.5195 0 .9779-.12138 1.4364-.30346.4584-.18209.8557-.45521 1.1919-.78902.3362-.33382.6112-.72833.8252-1.15318.1833-.42486.3056-.91041.3056-1.36561 0-.48555-.0917-.94075-.3056-1.39595-.1834-.42486-.4585-.81937-.7947-1.15318-.7029-.69798-1.6503-1.09249-2.6588-1.09249h-2.445V8.6792zm2.4144 1.24422h-3.0256c-.3362 0-.6113-.27312-.6113-.60693V.849723c0-.151734.0612-.333815.1834-.424856.1223-.121387.2751-.182081.4279-.182081h3.0562c.6723 0 1.3447.121388 1.9254.394509.5806.242775 1.1307.606935 1.5892 1.062135.4584.45521.8251.9711 1.0696 1.54769.2445.60694.3973 1.24422.3973 1.8815 0 .63729-.1222 1.27457-.3973 1.88151-.2445.57659-.6112 1.09248-1.0696 1.54769-.4585.4552-1.0086.78901-1.5892 1.03179-.6113.18208-1.2836.33381-1.956.33381zM78.1911 9.92342c-.3362 0-.6113-.27312-.6113-.60693V.849723c0-.333815.2751-.606937.6113-.606937.3361 0 .6112.273122.6112.606937V9.31649c0 .33381-.2751.60693-.6112.60693zM87.9098 9.28614c0 .33382-.2751.60694-.6113.60694h-5.8984c-.3362 0-.6113-.27312-.6113-.60694V.849723c0-.333815.2751-.606937.6113-.606937h5.7762c.3362 0 .6112.273122.6112.606937 0 .333817-.275.606937-.6112.606937h-5.1344v2.97399h4.5537c.3362 0 .6112.27312.6112.60693 0 .33382-.275.60694-.6112.60694h-4.5537v3.00434h5.2566c.3362.03034.6113.30346.6113.63728zM2.39761 31.3483c-.58068 0-1.06967-.4552-1.06967-1.0622V15.8107c0-.5766.48899-1.0622 1.06967-1.0622h6.26518c.09169 0 .58068 0 1.25304.1821.91687.2428 1.74207.698 2.38387 1.3049.4584.4552.8557 1.0318 1.1002 1.6995.275.7283.4279 1.5476.4279 2.4581 0 2.0028-.8558 3.5202-2.4144 4.4306-1.1308.6676-2.65892.9711-4.5232.9711-.58067 0-1.06966-.4552-1.06966-1.0621 0-.5766.48899-1.0622 1.06966-1.0622 1.49754 0 2.68945-.2428 3.4841-.698.9168-.5159 1.3752-1.3656 1.3752-2.6098 0-.8497-.1833-1.5477-.4584-2.0636-.2445-.4248-.5807-.7283-.978-.9711-.76401-.4552-1.52806-.4552-1.58918-.4552H3.43671v13.4437c0 .5766-.45843 1.0318-1.0391 1.0318zM30.484 15.75v14.4754c0 .5766-.4585 1.0622-1.0697 1.0622-.5807 0-1.0697-.4856-1.0697-1.0622v-6.3121h-9.0463v6.3425c0 .5766-.4584 1.0621-1.0696 1.0621-.5807 0-1.0697-.4855-1.0697-1.0621V15.75c0-.5766.4584-1.0622 1.0697-1.0622.5806 0 1.0696.4552 1.0696 1.0622v6.039h9.1075V15.75c0-.5766.489-1.0622 1.0696-1.0622.5501.0304 1.0086.4856 1.0086 1.0622zM70.3061 30.1344V16.8728h5.1955c.0612 0 .8558.0304 1.5892.4552.4279.2428.7335.5766.978.9711.3056.5463.4585 1.2442.4585 2.094 0 1.2442-.4279 2.0635-1.3448 2.6098-.8251.4552-1.9865.698-3.484.698-.5501 0-1.0086.3945-1.0697.9407-.0611.5463.3056 1.0318.8557 1.1532.0306 0 .5807.1517 1.3142.6373 1.0697.6676 1.956 1.6691 2.6895 2.9436.6418 1.1532 1.4669 1.6084 2.0476 1.8208.6418.2125 1.1308.1821 1.2836.1518.5807-.0911.978-.6373.8863-1.2139s-.6112-.9408-1.1919-.8801c-.0917 0-.6724 0-1.2225-.9407-.6418-1.1532-1.467-2.1546-2.3838-2.9437.4584-.1214.8863-.3034 1.253-.5159 1.5892-.9104 2.4144-2.4581 2.4144-4.4306 0-.9104-.1222-1.7298-.4279-2.4581-.2445-.6676-.6112-1.2139-1.1002-1.6994-.6112-.6069-1.4364-1.0621-2.3533-1.3049-.6418-.1821-1.1613-.1821-1.253-.1821h-6.2652c-.5807 0-1.0696.4855-1.0696 1.0621v12.3815c0 .2732.0916.5159.275.698.3973.3945 1.1002 1.0318 1.4975 1.396.214.0607.4279-.0304.4279-.1821zM101.204 29.4364c.153-.1821.245-.4248.245-.6676V15.7197c0-.4552-.306-.8801-.703-1.0015-.428-.1517-.9171.0304-1.1921.3945l-6.2652 8.5578-6.2346-8.5881c-.2751-.3642-.7641-.5159-1.192-.3945-.4584.1517-.7334.5462-.7334 1.0014v14.4451c0 .4552.275.9104.7334 1.0318.7335.2124 1.3753-.3338 1.3753-1.0014v-11.198l5.1956 7.1315c.2139.2731.5195.4248.8557.4248.3362 0 .6418-.1517.8557-.4248l5.1955-7.1315v11.8959c0 .1821.214.2731.3362.1518.5199-.5159 1.0089-1.0318 1.5279-1.5781z" fill="#fff"/>
    <path d="M41.2418 23.1243c2.6894-5.4625 5.3788-10.8946 8.0683-16.32663 1.5892 4.49133 3.973 9.71093 6.5708 13.83813-4.8288-.0607-10.2688.2731-14.6391 2.4885zm79.8892 5.3713s-3.974-8.2239-6.296-13.0491c-.061-.091-.122-.2124-.184-.3035-.397-.6069-1.069-1.0317-1.864-1.0317-1.07 0-1.925.7283-2.17 1.7297-.03.0911-.061.1821-.091.2428-.276.8497-.581 1.6994-.917 2.5188-1.039 2.5795-2.292 5.0679-3.759 7.3743-4.157 6.4942-10.5137 13.1098-18.4292 13.6864-15.3421 1.1228-25.7943-14.9307-31.4788-27.3425-1.6503-3.58094-3.1479-7.28325-4.187-11.10695-.3973-1.486995-3.3312-1.699423-4.0036-.364162C43.1977 10.0751 38.644 19.2702 34.0903 28.4956c-.1223.2428-1.6198 2.7616 1.8643 2.7616 3.7285 0 5.6539-8.5275 21.3321-8.5275 1.9254 2.883 4.0953 5.5839 6.4486 8.042 5.7151 5.9176 13.2944 11.0159 21.6684 11.1979 8.924.1821 16.8093-4.9162 22.2493-11.9263 2.2-2.8222 4.095-5.9783 5.501-9.3164l4.523 9.4682c.306.6676.978 1.0925 1.742 1.0925 1.07 0 1.925-.8801 1.925-1.9422.031-.3035-.061-.607-.213-.8498z" fill="#11A63C"/>
  </g>
  <defs>
    <clipPath id="clip0">
      <path fill="#fff" transform="translate(.625)" d="M0 0h120.75v42H0z"/>
    </clipPath>
  </defs>
</svg>
