<svg width="178" height="63" fill="none" xmlns="http://www.w3.org/2000/svg">
  <g clip-path="url(#clip0)">
    <path d="M13.9314 14.4604c-.2645 0-.529-.1323-.7054-.3086L4.67319 3.74731v9.83139c0 .4849-.39679.8817-.88174.8817s-.88174-.3968-.88174-.8817V1.27845c-.04408-.39678.22044-.749474.57313-.837648.3527-.13226.74948 0 .96991.264521L13.0497 11.1098V1.27845c0-.484953.3968-.881734.8817-.881734.485 0 .8817.396781.8817.881734V13.5787c0 .3967-.2645.7053-.5731.8376-.1322.0441-.2204.0441-.3086.0441zM24.909 1.8958c-.7494 0-1.4548.13226-2.1602.44086-.6613.26452-1.2785.6613-1.7635 1.19035-.529.48495-.9258 1.10216-1.1903 1.76347-.3086.6613-.4409 1.36669-.4409 2.11616 0 .74948.1323 1.41078.4409 2.11617.2645.66129.6613 1.23439 1.1903 1.76349 1.0581 1.0581 2.4248 1.6312 3.9237 1.6312 1.4549 0 2.8216-.5731 3.8797-1.6312.4849-.485.8817-1.1022 1.1462-1.76349.2646-.6613.3968-1.41078.3968-2.11617 0-1.45486-.529-2.86564-1.543-3.87963-1.0581-1.05809-2.4248-1.63121-3.8797-1.63121zm-.044 12.8292c-.97 0-1.9399-.1763-2.8216-.5731-.8817-.3968-1.6312-.8817-2.3366-1.5871-.6613-.6613-1.1903-1.4549-1.543-2.3366-.3527-.88174-.5732-1.85165-.5732-2.82156 0-.96991.1764-1.93982.5732-2.82155.3527-.83765.9258-1.63121 1.5871-2.29251.6613-.66131 1.4549-1.19035 2.3366-1.587128.9258-.396781 1.8516-.573128 2.8656-.573128 1.9398 0 3.7474.749475 5.1141 2.160256.6613.6613 1.1463 1.45486 1.4989 2.29251.3527.88173.5732 1.85164.5732 2.82155 0 .96991-.1764 1.93982-.5732 2.82156-.3526.8817-.8817 1.6753-1.543 2.3366-1.3667 1.3667-3.2183 2.1602-5.1581 2.1602zM35.7103 14.4163c-.485 0-.8817-.3967-.8817-.8817V1.2344c0-.484958.3967-.881739.8817-.881739h5.2904c.0882 0 .485 0 1.0581.13226.7935.176348 1.4548.573129 1.9839 1.102169.3968.39678.7054.88174.9258 1.41078.2645.61721.3527 1.3226.3527 2.07208 0 1.67529-.7054 2.9979-2.028 3.74737-.3086.17635-.6613.3527-1.0581.44087.7495.6613 1.4549 1.49891 2.028 2.46881.4409.7936.9699.7936 1.014.7936.485-.0441.9258.2645 1.014.7495.0882.4849-.2645.9699-.7495 1.014-.1322 0-.529.0441-1.1021-.1323-.485-.1763-1.1904-.5731-1.7194-1.543-.6172-1.0581-1.3667-1.8957-2.2925-2.4689-.6172-.39676-1.1022-.52902-1.1022-.52902-.4409-.08817-.7495-.48495-.7054-.96991.0441-.48495.4409-.79356.8817-.79356 1.2786 0 2.2485-.17634 2.9098-.57313.7935-.44086 1.1462-1.14625 1.1462-2.20433 0-.70539-.1322-1.32261-.3967-1.76348-.1764-.35269-.4409-.61721-.8377-.83764-.6172-.3527-1.2785-.39678-1.3226-.39678H36.592V13.4464c.0441.5291-.3527.9699-.8817.9699zM61.9419 14.3282c-.4849 0-.8817-.3967-.8817-.8817V3.87967l-4.3646 6.03989c-.1763.22044-.4409.35264-.7054.35264s-.529-.1322-.7495-.35264l-4.3646-6.03989v9.56683c0 .485-.3967.8817-.8817.8817-.4849 0-.8817-.3967-.8817-.8817V1.14629c0-.396784.2645-.749479.6172-.837652.3527-.132261.7495 0 1.014.308607l5.2463 7.274315L61.2365.617245c.2205-.308607.6173-.440868 1.014-.308607.3527.13226.6173.484954.6173.837652V13.4465c-.0441.485-.4409.8817-.9259.8817zM94.8307 14.4604c-.2645 0-.5291-.1323-.7054-.3086L85.5284 3.74731v9.83139c0 .4849-.3968.8817-.8818.8817-.4849 0-.8817-.3968-.8817-.8817V1.27845c0-.39678.2204-.705387.5731-.837648.3527-.13226.7495 0 .9699.264521l8.597 10.404477V1.27845c0-.484953.3967-.881734.8817-.881734.4849 0 .8817.396781.8817.881734V13.5787c0 .3967-.2645.7053-.5731.8376-.0882.0441-.1763.0441-.2645.0441zM100.342 12.6088h3.526c.75 0 1.411-.1764 2.073-.4409.661-.2645 1.234-.6613 1.719-1.1462.485-.485.882-1.05812 1.19-1.67534.265-.61721.441-1.3226.441-1.9839 0-.70539-.132-1.36669-.441-2.02799-.264-.61722-.661-1.19035-1.146-1.6753-1.014-1.014-2.381-1.58712-3.836-1.58712h-3.526V12.6088zm3.482 1.8075h-4.3642c-.485 0-.8817-.3967-.8817-.8817V1.2344c0-.22044.0881-.484958.2645-.617218.1763-.176347.3968-.264521.6172-.264521h4.4082c.97 0 1.94.176347 2.778.573128.838.352691 1.631.881731 2.292 1.543041.662.6613 1.191 1.41077 1.543 2.24842.353.88174.574 1.80756.574 2.73338 0 .92582-.177 1.85165-.574 2.73337-.352.8377-.881 1.5871-1.543 2.2484-.661.6613-1.454 1.1463-2.292 1.499-.926.2645-1.896.4849-2.822.4849zM114.758 14.4163c-.485 0-.882-.3967-.882-.8817V1.2344c0-.484958.397-.881739.882-.881739s.882.396781.882.881739v12.3002c0 .485-.353.8817-.882.8817zM128.777 13.4905c0 .485-.396.8818-.881.8818h-8.509c-.485 0-.882-.3968-.882-.8818V1.2344c0-.484958.397-.881739.882-.881739h8.332c.485 0 .882.396781.882.881739 0 .48495-.397.88173-.882.88173h-7.406v4.32051h6.569c.485 0 .881.39678.881.88173 0 .48496-.396.88174-.881.88174h-6.569v4.36459h7.583c.485.0441.881.4409.881.9258zM5.42268 45.5416c-.83765 0-1.54304-.6613-1.54304-1.543V22.9692c0-.8377.70539-1.5431 1.54304-1.5431h9.03782c.1322 0 .8376 0 1.8075.2646 1.3226.3527 2.513 1.014 3.4388 1.8957.6613.6613 1.2344 1.4989 1.5871 2.4689.3968 1.058.6172 2.2484.6172 3.571 0 2.9097-1.2344 5.114-3.4828 6.4366-1.6312.97-3.8356 1.4108-6.5249 1.4108-.8376 0-1.543-.6613-1.543-1.543 0-.8377.7054-1.543 1.543-1.543 2.1603 0 3.8797-.3527 5.0259-1.014 1.3226-.7495 1.9839-1.9839 1.9839-3.7915 0-1.2344-.2645-2.2484-.6613-2.9979-.3527-.6172-.8376-1.0581-1.4107-1.4108-1.1022-.6613-2.2044-.6613-2.2926-.6613H6.92163v19.5304c0 .8377-.66131 1.499-1.49895 1.499zM45.9384 22.881v21.0294c0 .8377-.6613 1.5431-1.543 1.5431-.8376 0-1.543-.7054-1.543-1.5431v-9.17H29.8027v9.2141c0 .8377-.6613 1.5431-1.543 1.5431-.8377 0-1.5431-.7054-1.5431-1.5431V22.881c0-.8376.6613-1.543 1.5431-1.543.8376 0 1.543.6613 1.543 1.543v8.7733h13.1378V22.881c0-.8376.7054-1.543 1.5431-1.543.7935.0441 1.4548.7054 1.4548 1.543zM103.384 43.7781V24.5122h7.538c.089 0 1.235.0441 2.293.6613.617.3527 1.058.8377 1.411 1.4108.441.7935.661 1.8075.661 3.042 0 1.8075-.617 2.9979-1.94 3.7914-1.19.6613-2.866 1.014-5.026 1.014-.793 0-1.455.5732-1.543 1.3667-.088.7936.441 1.499 1.235 1.6753.044 0 .837.2205 1.895.9258 1.543.9699 2.822 2.4248 3.88 4.2765.926 1.6753 2.116 2.3366 2.954 2.6452.926.3086 1.631.2645 1.851.2204.838-.1323 1.411-.9258 1.279-1.7635-.132-.8376-.882-1.3667-1.719-1.2785-.133 0-.97 0-1.764-1.3667-.926-1.6753-2.116-3.1301-3.439-4.2764.662-.1763 1.279-.4409 1.808-.7495 2.292-1.3226 3.483-3.571 3.483-6.4366 0-1.3226-.177-2.513-.617-3.5711-.353-.9699-.882-1.7634-1.588-2.4688-.881-.8818-2.072-1.5431-3.394-1.8958-.926-.2645-1.676-.2645-1.808-.2645h-9.038c-.837 0-1.543.7054-1.543 1.5431v17.9874c0 .3967.133.7494.397 1.014.573.5731 1.587 1.4989 2.16 2.028.309.0881.574-.0441.574-.2646zM147.955 42.7642c.221-.2646.353-.6173.353-.9699V22.8369c0-.6613-.441-1.2785-1.014-1.4548-.617-.2205-1.323.0441-1.719.5731l-8.994 12.4325-8.994-12.4766c-.397-.529-1.102-.7495-1.719-.5731-.662.2204-1.058.7935-1.058 1.4548v20.9854c0 .6613.396 1.3226 1.058 1.4989 1.058.3086 1.984-.4849 1.984-1.4549v-16.268l7.494 10.3604c.309.3968.75.6172 1.235.6172.485 0 .926-.2204 1.234-.6172l7.495-10.3604v17.282c0 .2646.309.3968.485.2205.705-.7495 1.455-1.499 2.16-2.2925z" fill="#65696B"/>
    <path d="M61.4569 33.5941c3.8797-7.9356 7.7593-15.8271 11.639-23.71866 2.2925 6.52486 5.7312 14.10776 9.4786 20.10356-6.9657-.0882-14.8131.3968-21.1176 3.6151zM176.7 41.3975s-5.731-11.9475-9.082-18.9573c-.088-.1323-.176-.3086-.265-.4409-.573-.8817-1.543-1.4989-2.689-1.4989-1.543 0-2.777 1.058-3.13 2.5129-.044.1323-.088.2645-.132.3527-.397 1.2344-.838 2.4689-1.323 3.6592-1.499 3.7474-3.306 7.3625-5.423 10.7131-5.995 9.4345-15.165 19.0455-26.584 19.8831-22.131 1.6312-37.2092-21.6907-45.4093-39.7222-2.3807-5.2022-4.541-10.58079-6.0399-16.13573-.5731-2.160249-4.8055-2.468857-5.7754-.52904C64.2785 14.6368 57.7096 27.9951 51.1406 41.3975c-.1763.3527-2.3366 4.0119 2.6893 4.0119 5.3786 0 8.1561-12.3884 30.7726-12.3884 2.7775 4.1882 5.9076 8.112 9.3023 11.683 8.2442 8.5969 19.1782 16.0035 31.2572 16.268 12.874.2645 24.248-7.142 32.096-17.3261 3.174-4.1001 5.907-8.6851 7.935-13.5346l6.525 13.711c.441.9699 1.411 1.5871 2.513 1.5871 1.543 0 2.777-1.2785 2.777-2.8216.044-.3968-.088-.8376-.308-1.1903zM4.27642 61.0161c-.04408 0-.13226-.0441-.17634-.0882-.04409-.0441-.08818-.0882-.08818-.1764 0-.2204.04409-.4849.08818-.7935.04408-.3086.13226-.5732.17634-.8818.08818-.3086.17635-.6172.26452-.8817.08818-.3086.17635-.5731.26453-.7936.08817-.2204.13226-.4408.22043-.5731.04409-.1323.08817-.2204.08817-.2645.04409-.0441.04409-.0882.13226-.1323.04409-.0441.13226-.0441.17635 0 .04409.0441.08817.0882.13226.1323.04409.0441.04409.1322 0 .1763 0 0-.04409.0882-.08817.2205-.04409.1322-.13226.3527-.17635.5731-.08817.2204-.17635.485-.26452.7936-.08817.3086-.17635.5731-.26452.8817-.08817.3086-.13226.5731-.17635.8817-.04409.2646-.08817.5291-.08817.7495 0 .0441 0 .1323-.04409.1764h-.17635zm1.10217-1.8517c-.04408 0-.08817 0-.13226-.0441-.04408-.0441-.04408-.0882-.08817-.1322 0-.0441 0-.1323.04409-.1764.04408-.0441.08817-.0882.13226-.0882.39678-.0881.79356-.2204 1.14625-.3967.39678-.1323.70539-.3086.96991-.5291.26452-.1763.48496-.3968.61722-.6172.13226-.2204.17634-.4409.13226-.7054-.04409-.2645-.30861-.4409-.74948-.5731-.22043-.0441-.44087-.0882-.70539-.1323s-.57312-.0441-.88173-.0441c-.30861 0-.6613.0441-1.014.0882-.35269.0441-.74947.0882-1.14625.1764-.3527.0881-.70539.1763-1.05809.2645-.3086.0881-.61721.1763-.88173.3086-.26452.0882-.48496.2204-.70539.3086-.220435.1323-.352695.2204-.440869.3527-.13226.0882-.176347.2204-.13226.2645v.1764c-.044087.044-.088174.0881-.13226.0881H.176353c-.044086-.0441-.0881732-.0881-.0881732-.1322-.0440867-.0882-.0440867-.1764 0-.3086.0440872-.1323.0881732-.2646.2645212-.3968.26452-.2645.705389-.5291 1.322599-.7495.30861-.1323.61722-.2204.92583-.3086.35269-.0882.70538-.1764 1.05808-.2645.35269-.0882.74947-.1323 1.10217-.1764.35269-.0441.70539-.0881 1.05808-.0881.74948-.0441 1.36669.044 1.85165.1763.26452.0882.48495.1763.6613.3086.22043.1764.30861.3527.39678.5731.04409.0882.04409.2205.04409.3527 0 .1323-.04409.2646-.08818.4409-.04408.1323-.17635.3086-.30861.485-.13226.1763-.3086.3526-.57312.4849-.26452.2204-.61722.3968-1.014.5731-.39678.1764-.83765.3086-1.27852.4409h-.13226zM8.02376 61.0602c-.04408 0-.04408 0-.08817-.0441s-.08817-.0441-.13226-.1323c-.04409-.0441-.04409-.0882 0-.1763 0 0 .04409-.0882.08817-.2205.04409-.1763.13226-.3527.22044-.6172.08817-.2645.17634-.5731.3086-.8817.13226-.3527.22044-.6613.3527-1.014l.39678-1.0581c.13226-.3527.26452-.6613.39678-.9699.04409-.0441.04409-.0882.13226-.1323.04409-.0441.13226-.0441.17635 0 .04408.0441.08817.0882.13229.1323.0441.0441 0 .1322 0 .1763-.08821.2205-.17638.4409-.26455.7054-.08818.2645-.17635.485-.30861.7495-.08817.2645-.17635.529-.26452.7936-.08818.2645-.17635.4849-.26452.7494.17635-.2645.35269-.4849.52904-.6613.30861-.3086.52904-.4849.74946-.4849.0882 0 .1764 0 .2204.0441.0441.0441.0882.0881.1323.0881.0882.1323.1323.2646.0882.4409-.0441.1764-.0882.4409-.1323.7054 0 .0441-.0441.0882-.0441.1323 0 .044-.0441.0881-.0441.1322-.0881.2645-.1322.5291-.1322.7054v.2204c0 .0441 0 .0882.0441.0882 0 0 .0441 0 .0441.0441h.0881c.0882 0 .1764-.0441.3086-.1323.1323-.0881.2646-.2204.3968-.3967.1323-.1323.2205-.3086.3086-.3968.0882-.0882.1323-.1764.1323-.1764.0441-.0441.0882-.0881.1323-.0881.044 0 .1322 0 .1763.044.0441.0441.0882.0882.0882.1323s0 .1323-.0441.1764c0 0 0 .044-.0441.044-.0441.0441-.0441.0882-.0882.1323s-.0881.1323-.1322.2204c-.0441.0882-.1323.1764-.1764.2205-.1763.1763-.3086.3527-.4409.4849-.2204.1764-.3967.2645-.6172.2645-.2204 0-.3527-.0881-.48492-.2204-.04409-.0882-.08817-.1763-.13226-.2645v-.3086c0-.1323.04409-.2645.04409-.3968.04408-.1323.04408-.2645.08817-.4409l.08822-.3086c.044-.0882.044-.2204.0881-.3086.0441-.0882.0441-.1763.0441-.2645v-.1323-.0881s-.0441.044-.0882.044c-.044.0441-.13222.0882-.22039.1764-.08818.0882-.17635.2204-.30861.3527-.13226.1763-.26452.3527-.44087.6172-.08817.1764-.22043.3086-.30861.485-.08817.1763-.17634.3086-.26452.3967-.08817.1323-.13226.2646-.22043.3968-.17635.1764-.22043.2205-.30861.2205z" fill="#11A63C"/>
    <path d="M15.2539 57.6655c-.0441.0441-.0881.0882-.0881.1323V58.0182c0 .0441.044.0882.044.1323.0441.044.0882.1322.1323.1763l.0441.0441v-.3086c0-.0882-.0441-.1764-.0882-.2645l-.0441-.0441c.0441-.0441.0441-.0441 0-.0882zm1.9839 3.3506c-.1322 0-.2645-.0441-.3527-.0882-.0881-.0441-.1322-.1322-.1763-.1763-.1764-.2205-.2204-.6172-.1323-1.1463.0441-.2645.0882-.5731.2205-.9258-.0441.0441-.1323.0441-.2205.0882-.3086.1322-.6172.1763-.8817.1322 0 .0441 0 .0882-.0441.0882 0 .0441-.0441.0882-.0441.0882-.0881.2204-.2204.4408-.3527.6172-.1322.1763-.2645.3968-.3968.5731-.0881.0882-.1763.1764-.2204.2645-.0882.0882-.1763.1323-.2204.2205-.2205.1763-.3968.2204-.6172.2204-.2205 0-.3527-.0882-.485-.2204-.0882-.1323-.1763-.3086-.1763-.5291-.0441.0882-.1323.1764-.2205.2205l-.2204.2204c-.1764.1323-.3527.2645-.529.3086-.1764.0441-.3527.0441-.485 0-.0882-.0441-.1763-.0882-.2645-.1763-.0882-.0882-.1323-.1764-.1764-.3086-.0441-.2205-.0441-.485.0441-.7936.0882-.2645.1764-.485.3086-.7054.1323-.2204.3086-.3968.485-.5731.1763-.1764.3527-.2645.529-.3527.1764-.0882.3527-.0882.485-.0441.0441 0 .0882.0441.1322.0441.0441.0441.0882.0882.1323.1322.0441.0441.0882.1323.0882.2205 0 .0881 0 .2204-.0441.3968 0 .044-.0441.0881-.0882.1322-.0441.0441-.0882.0441-.1763.0441-.0441 0-.0882-.0441-.1323-.0882s-.0441-.0881-.0441-.1763v-.1764-.0881s0-.0441-.0441-.0441-.1322 0-.2204.0441c-.1323.0441-.2204.1322-.3968.2645-.1322.1322-.3086.3086-.3968.4849-.1322.1764-.2204.3968-.2645.5732-.0441.1763-.0882.3527-.0441.4849 0 .1323.0882.2205.1764.2645h.2204c.0882-.044.2204-.0881.3527-.2204.0882-.0882.2204-.2204.3968-.4409.1322-.1763.3086-.4849.4849-.8376.0441-.0441.0441-.0882.1323-.1323.0441-.0441.0882-.0441.1763 0 .0441.0441.0882.0441.1323.1323.0441.0441.0441.0882 0 .1763-.0882.3968-.1323.6613-.1323.8818 0 .2204.0441.3527.0882.4408l.0441.0441h.0882c.0882 0 .1763-.0441.3086-.1322.1322-.0882.2645-.2205.3968-.3968.1322-.1764.2645-.3527.3967-.5291.0882-.1763.2205-.3527.3087-.5731l.0881-.1763c-.0881-.0441-.1763-.0882-.2204-.1764-.1764-.1322-.2645-.3086-.3086-.4849-.0441-.1764-.0441-.3527 0-.485.0441-.1323.0882-.2204.1763-.3086.0882-.0882.1764-.1323.2646-.1323.2204 0 .3967.0882.4849.3086.1323.2205.1764.485.1323.8377l-.0441.1323h.2645c.0882-.0441.2204-.0441.3086-.0882.0882-.0441.1764-.0882.2645-.1323.0882-.0441.1323-.0881.2205-.1322.0441-.0441.1322-.0882.1763-.1323s.0882-.0441.1323-.0441.0881 0 .1322.0441c.0441.0441.0882.0882.0882.1323v.1322c-.1323.4409-.2645.7495-.3086 1.0581-.0441.2645-.0882.485-.1323.6613v.3968c0 .0882.0441.1323.0441.1763l.0441.0441c.0441 0 .0441.0441.1323.0441.0881 0 .1763-.0441.3086-.1322.1322-.0882.2645-.2205.3968-.3968.044-.0882.1322-.1323.1763-.2205.0441-.0881.0882-.1322.1323-.1763s.0881-.1323.1322-.1764c.0441-.044.0882-.0881.1323-.0881h.1763c.0441.0441.0882.0881.0882.1322 0 .0441 0 .1323-.0441.1764 0 0 0 .0441-.0441.0441-.0441.0441-.044.0881-.0881.1322-.0441.0441-.0882.1323-.1323.2205-.0441.0881-.1323.1763-.1763.2204-.1323.1763-.3087.3527-.4409.4849-.0882.1323-.2645.1764-.485.1764z" fill="#11A63C"/>
    <path d="M18.1638 61.0602c-.0441 0-.0441 0-.0882-.0441s-.0882-.0441-.1323-.1322c-.044-.0441-.044-.0882 0-.1764 0 0 .0441-.0882.0882-.2204.0441-.1323.1323-.3527.1764-.5732.0881-.2645.1763-.529.3086-.8376.0881-.3086.2204-.6613.3527-1.014 0-.0441.0441-.0882.1322-.1323.0441-.044.1323-.044.1764 0 .0441.0441.0881.0441.1322.1323.0441.0441.0441.1323 0 .1764l-.2645.7935c.0882-.1323.1764-.2204.2645-.3527.0882-.0882.1764-.1763.2205-.2645.1322-.1764.3086-.3086.3967-.3527.1323-.0882.2205-.1323.3527-.1323.0441 0 .1323 0 .1764.0441s.0882.0441.1323.0882c.044.0441.044.0882.0881.1323 0 .044.0441.1322.0441.2645v.3968c0 .1763-.0441.3527-.0882.6172l.0882-.0882c.1323-.2204.2645-.3968.3527-.529.1323-.1764.2204-.3086.3527-.3968.1323-.1764.3086-.3086.3968-.3527.1322-.0882.2204-.1323.3527-.1323.0881 0 .1763 0 .2204.0441s.0882.0882.1323.0882c.0881.1322.1322.2645.0881.4409-.044.1763-.0881.4408-.1322.7053l-.0882.3087c-.0441.1322-.0441.2645-.0882.3967-.0441.1323-.0441.2205-.0441.3086v.2205c0 .0441 0 .0881.0441.0881 0 0 .0441.0001.0441.0441h.0882c.0882 0 .1763-.044.3086-.1322.1323-.0882.2645-.2205.3968-.3968.0441-.0882.1322-.1323.1763-.2204.0441-.0882.0882-.1323.1323-.1764s.0882-.1322.1323-.1763c.044-.0441.0881-.0882.1322-.0882h.1764c.044.0441.0881.0882.0881.1323v.1763s0 .0441-.0441.0441c-.044.0441-.044.0882-.0881.1322-.0441.0441-.0882.1323-.1323.2205s-.1322.1763-.1763.2204c-.1323.1764-.3086.3527-.4409.485-.2204.1763-.3968.2204-.6172.2204-.2205 0-.3527-.0882-.485-.2204-.0441-.0882-.0881-.1764-.0881-.2646v-.3086c0-.1322.044-.2645.044-.3967.0441-.1323.0441-.2646.0882-.4409l.0882-.3086c.0441-.0882.0441-.2205.0882-.3086.044-.0882.044-.1764.044-.2645v-.2205s-.044.0441-.0881.0441c-.0441.0441-.1323.0882-.2205.1764-.0881.0881-.1763.2204-.3086.3527-.1322.1763-.2645.3526-.4408.6172-.0882.1763-.2205.3086-.3086.4849-.0882.1764-.1764.3086-.2646.3968-.0881.1323-.1322.2645-.2204.3968-.0441.0441-.0441.0882-.1323.1322h-.1763c-.0441-.044-.0882-.044-.1323-.1322-.0441-.0441-.0441-.0882 0-.1764 0-.044.0441-.0881.0441-.1763 0-.0882.0441-.1764.0882-.2645.0441-.0882.0441-.2205.0882-.3527.0441-.1323.0441-.2645.0881-.3968.0441-.1764.0441-.3527.0882-.4409 0-.1322.0441-.2204.0441-.3086v-.2204-.1323c-.0441 0-.0882.0441-.1323.0882-.044.0441-.1322.0882-.2204.1763-.0882.0882-.1763.2205-.3086.3527-.1323.1323-.2645.3527-.3968.5732-.0882.1763-.2204.3086-.3086.4849-.0882.1764-.1763.3086-.2645.3968-.0882.1323-.1323.2645-.2204.3968 0 .0441-.0441.0882-.0882.0882-.2645.1322-.2645.1763-.3086.1763z" fill="#11A63C"/>
    <path d="M25.7908 61.0161c-.2205 0-.3527-.0882-.485-.2204-.0882-.1323-.1763-.3086-.1763-.5291-.0441.0882-.1323.1764-.2205.2205l-.2204.2204c-.1764.1322-.3527.2645-.529.3086-.1764.0441-.3527.0441-.485 0-.0882-.0441-.1763-.0882-.2645-.1764-.0882-.0881-.1323-.1763-.1764-.3086-.0441-.2204-.0441-.4849.0441-.7935.0882-.2645.1764-.485.3086-.7054.1323-.2204.3086-.3968.485-.5731.1763-.1764.3527-.2646.529-.3527.1764-.0882.3527-.0882.485-.0441.0441 0 .0882.0441.1322.0441.0441.0441.0882.0881.1323.1322.0441.0441.0882.1323.0882.2205 0 .0881 0 .2204-.0441.3967 0 .0441-.0441.0882-.0882.1323s-.0882.0441-.1763.0441c-.0441 0-.0882-.0441-.1323-.0882s-.0441-.0882-.0441-.1763v-.1764-.0882s0-.044-.0441-.044-.1322 0-.2204.044c-.1323.0441-.2204.1323-.3968.2646-.1763.1322-.3086.3086-.3968.4849-.1322.1764-.2204.3968-.2645.5732-.0441.1763-.0882.3526-.0441.4849 0 .1323.0882.2204.1764.2645h.2204c.0882-.0441.2204-.0881.3527-.2204.0882-.0882.2204-.2204.3968-.4409.1763-.1763.3086-.4849.4849-.8376.0441-.0441.0441-.0882.1323-.1323.0441-.0441.0882-.0441.1763 0 .0441.0441.0882.0441.1323.1323.0441.0441.0441.0881 0 .1763-.0882.3968-.1323.6613-.1323.8818 0 .2204.0441.3527.0882.4408l.0441.0441h.0882c.0882 0 .1763-.0441.3086-.1322.1322-.0882.2645-.2205.3968-.3968.1322-.1323.2204-.2646.3086-.3968.0882-.1323.1322-.1764.1322-.1764.0441-.044.0882-.0881.1323-.0881s.1323 0 .1763.0441c.0441.044.0882.0881.0882.1322 0 .0441 0 .1323-.0441.1764 0 0 0 .0441-.0441.0441-.044.044-.044.0881-.0881.1322-.0441.0441-.0882.1323-.1323.2204-.0441.0882-.1323.1764-.1763.2205-.0882.0882-.1764.1763-.2205.2645-.0881.0882-.1763.1323-.2204.2204-.1764.0882-.3527.1323-.5731.1323z" fill="#11A63C"/>
    <path d="M28.0833 61.0161c-.4408 0-.7935-.1322-1.014-.3968-.044-.0881-.1322-.1763-.1763-.3526-.0441-.1323-.0441-.3527 0-.5732.0441-.2204.1322-.4408.2204-.6613.1323-.2204.2645-.3968.3968-.5731.1323-.1763.3086-.3086.485-.3968.1763-.0882.3527-.1322.4849-.1322.1323 0 .2204.044.3527.1322.0882.0882.1764.1764.1764.3527 0 .0882.044.1764.044.2204 0 .0882 0 .1764-.044.2646-.0441.1763-.1764.3086-.3087.3967-.044.0441-.1322.0441-.1763 0-.0441 0-.0882-.044-.1323-.1322-.044-.0441-.044-.1323 0-.1764 0-.044.0441-.0881.1323-.1322.0441 0 .0441-.0441.0882-.1323s.0441-.1763 0-.2645c0-.0441-.0441-.0882-.0441-.0882h-.0441c-.0882 0-.1763.0441-.2645.0882-.1323.0441-.2205.1323-.3527.3086-.1323.1323-.2645.3086-.3527.485-.0882.1763-.1764.3527-.1764.5731-.044.2204 0 .4409.0882.529.1323.1323.3527.2205.6613.2205.4409 0 .8377-.1764 1.1904-.5291.0881-.0882.1322-.1322.1763-.2204s.0882-.1323.1323-.1764c.0441-.044.0881-.1322.1322-.1763l.1323-.1323h.1763c.0441.0441.0882.0882.0882.1323v.1763s0 .0441-.0441.0882c0 .0441-.0441.0882-.0882.1323-.044.0441-.0881.1322-.1763.2204-.0441.0882-.1323.1764-.2204.2204-.2205.2205-.485.3968-.7054.5291-.3086.1322-.5731.1763-.8377.1763z" fill="#11A63C"/>
    <path d="M30.7285 57.2247c0 .0441-.0441.1323-.1322.1764-.0441.044-.1323.0881-.1764.0881s-.0882 0-.1323-.0441c-.044-.044-.044-.0881 0-.1763 0-.0441.0441-.1323.1323-.1764.0441-.044.1323-.0881.1764-.0881.044 0 .1322 0 .1322.0441.0441.044.0441.1322 0 .1763zm-.3968 3.7915c-.1322 0-.2645-.0441-.3527-.0882-.0881-.0441-.1322-.1323-.1763-.1764-.1764-.2204-.2204-.6172-.1323-1.1462.0441-.3968.1764-.9258.3968-1.543 0-.0441.0441-.0882.1323-.1323.0441-.0441.1322-.0441.1763 0s.0882.0441.1323.1323c.0441.044.0441.1322 0 .1763-.1323.4409-.2645.7495-.3086 1.0581-.0441.2645-.0882.4849-.1323.6613v.3968c0 .0881.0441.1322.0441.1763l.0441.0441c.0441 0 .0441.0441.1322.0441.0882 0 .1764-.0441.3087-.1323.1322-.0882.2645-.2204.3967-.3968.0441-.0881.1323-.1322.1764-.2204s.0882-.1323.1322-.1763c.0441-.0441.0882-.1323.1323-.1764s.0882-.0882.1323-.0882h.1763c.0441.0441.0882.0882.0882.1323v.1763s0 .0441-.0441.0441c-.0441.0441-.0441.0882-.0882.1323s-.0882.1323-.1322.2204c-.0441.0882-.1323.1764-.1764.2205-.1323.1763-.3086.3527-.4409.4849-.2204.1323-.4408.1764-.6172.1764z" fill="#11A63C"/>
    <path d="M33.065 58.3708s-.0441 0 0 0c-.0881 0-.2204.0441-.3086.1323-.1322.0441-.2645.1763-.3968.3086-.1322.1323-.2204.2645-.3086.4409-.0881.1763-.1322.3527-.1763.529.2204-.0441.4409-.0882.6172-.2204.1763-.1323.3527-.2645.485-.485.0881-.1322.1763-.2645.1763-.3968.0441-.1322.0441-.2204 0-.2645 0-.0441-.0441-.0441-.0882-.0441zm2.028 2.6452c-.0881 0-.1763 0-.2645-.044-.0882-.0441-.1763-.0882-.2204-.1323-.1764-.1323-.2646-.3086-.2646-.485 0-.044 0-.1322.0441-.1763s.0882-.0441.1764-.0441.1322 0 .1763.0441.0441.0882.0441.1763c0 .0882.0441.1323.1323.1764.0881.0441.1322.0441.2204.0441.2204 0 .3968-.0882.5731-.2645.2205-.2205.3086-.485.3086-.8377 0-.1763-.044-.3086-.1763-.4409-.0882-.1322-.2204-.2645-.3527-.3527l-.2204-.1763c-.1323.3527-.3086.6613-.485.9699-.1763.3086-.3968.6172-.6613.8817-.2204.2205-.4849.3968-.7054.5291-.2645.1322-.529.1763-.7935.1763-.4409 0-.7936-.1322-1.014-.3967-.0441-.0882-.1323-.1764-.1764-.3527-.0441-.1323-.0441-.3527 0-.5732.0441-.2204.1323-.4408.2205-.6613.0881-.2204.2645-.3968.3967-.5731.1323-.1323.3086-.2645.485-.3527.1763-.0882.3086-.1323.4849-.1763.1323 0 .2646 0 .3527.044.0882.0441.1764.1323.2205.2646.0441.1322.0441.3086 0 .4849-.0441.1764-.1323.3968-.2645.5732-.0882.1322-.1764.2204-.3087.3526-.1322.0882-.2204.1764-.3526.2646-.2646.1322-.5291.2204-.8377.2645.0441.1322.1763.2645.3086.3086.1323.0441.2645.0882.4409.0882.4408 0 .8376-.1764 1.1903-.5291.0882-.0881.1323-.1763.2205-.2645.0881-.0882.1763-.2204.2645-.3527.0881-.1323.1763-.2645.2645-.3968.0882-.1322.1323-.2645.2204-.3968.0441-.1322.1323-.2645.1323-.3526.0441-.1323.0441-.2205.0441-.2646s0-.0881.0441-.1322c.0441-.0441.0881-.0882.1322-.0882.0441 0 .0882 0 .1323.0441s.0882.0882.0882.1322c0 .0441.044.1323.1322.2205.0882.0882.1323.1322.2205.2204.0881.0882.1322.1323.2204.2204.0882.0882.1763.1764.2204.2646.0882.0881.1323.1763.1764.3086.0441.1322.0881.2204.0881.3968 0 .3086-.044.5731-.1322.7494-.0882.1764-.1764.3527-.3086.4409-.1323.1323-.2645.2204-.3968.2645-.1323-.1322-.2645-.0882-.4409-.0882zM38.4436 61.0602c-.0441 0-.0441 0-.0881-.0441-.0441-.0441-.0882-.0441-.1323-.1322-.0441-.0441-.0441-.0882 0-.1764 0 0 .0441-.0882.0882-.2204.0441-.1323.1322-.3527.1763-.5732.0441-.2204.1764-.529.3086-.8376.0882-.3086.2205-.6613.3527-1.014 0-.0441.0441-.0882.1323-.1323.0441-.044.1322-.044.1763 0 .0441.0441.0882.0441.1323.1323.0441.0441.0441.1323 0 .1764l-.2645.7935c.0881-.1323.1763-.2204.2645-.3527.0882-.0882.1763-.1763.2204-.2645.1323-.1764.3086-.3086.3968-.3527.1323-.0882.2204-.1323.3527-.1323.0441 0 .1322 0 .1763.0441s.0882.0441.1323.0882.0441.0882.0882.1323c0 .044.0441.1322.0441.2645v.3968c0 .1763-.0441.3527-.0882.6172l.0882-.0882c.1322-.2204.2645-.3968.3527-.529.1322-.1764.2204-.3086.3526-.3968.1323-.1764.3087-.3086.3968-.3527.1323-.0882.2205-.1323.3527-.1323.0882 0 .1764 0 .2205.0441.044.0441.0881.0882.1322.0882.0882.1322.1323.2645.0882.4409-.0441.1763-.0882.4408-.1323.7053l-.0881.3087c-.0441.1322-.0441.2645-.0882.3967-.0441.1323-.0441.2205-.0441.3086v.2205c0 .0441 0 .0881.0441.0881 0 0 .0441.0001.0441.0441h.0881c.0882 0 .1764-.044.3086-.1322.1323-.0882.2646-.2205.3968-.3968.0441-.0882.1323-.1323.1764-.2204.0441-.0882.0881-.1323.1322-.1764.0441-.0441.0882-.1322.1323-.1763s.0882-.0882.1323-.0882h.1763c.0441.0441.0882.0882.0882.1323v.1763s0 .0441-.0441.0441c-.0441.0441-.0441.0882-.0882.1322-.0441.0441-.0882.1323-.1322.2205-.0441.0882-.1323.1763-.1764.2204-.1323.1764-.3086.3527-.4409.485-.2204.1763-.3967.2204-.6172.2204-.2204 0-.3527-.0882-.4849-.2204-.0441-.0882-.0882-.1764-.0882-.2646v-.3086c0-.1322.0441-.2645.0441-.3967.0441-.1323.0441-.2646.0882-.4409l.0881-.3086c.0441-.0882.0441-.2205.0882-.3086.0441-.0882.0441-.1764.0441-.2645v-.2205s-.0441.0441-.0882.0441c-.0441.0441-.1322.0882-.2204.1764-.0882.0881-.1764.2204-.3086.3527-.1323.1763-.2645.3526-.4409.6172-.0882.1763-.2204.3086-.3086.4849-.0882.1764-.1763.3086-.2645.3968-.0882.1323-.1323.2645-.2204.3968-.0441.0441-.0441.0882-.1323.1322h-.1764c-.044-.044-.0881-.044-.1322-.1322-.0441-.0441-.0441-.0882 0-.1764 0-.044.0441-.0881.0441-.1763 0-.0882.0441-.1764.0881-.2645.0441-.0882.0441-.2205.0882-.3527.0441-.1323.0441-.2645.0882-.3968.0441-.1764.0441-.3527.0882-.4409 0-.1322.0441-.2204.0441-.3086v-.2204-.1323c-.0441 0-.0882.0441-.1323.0882s-.1323.0882-.2204.1763c-.0882.0882-.1764.2205-.3087.3527-.1322.1323-.2645.3527-.3967.5732-.0882.1763-.2205.3086-.3086.4849-.0882.1764-.1764.3086-.2646.3968-.0881.1323-.1322.2645-.2204.3968 0 .0441-.0441.0882-.0882.0882-.2204.1322-.2645.1763-.3086.1763z" fill="#11A63C"/>
    <path d="M46.1147 61.0161c-.2204 0-.3527-.0882-.4849-.2204-.0882-.1323-.1764-.3086-.1764-.5291-.0441.0882-.1322.1764-.2204.2205-.0882.0881-.1323.1322-.2204.2204-.1764.1322-.3527.2645-.5291.3086-.1763.0441-.3527.0441-.4849 0-.0882-.0441-.1764-.0882-.2645-.1764-.0882-.0881-.1323-.1763-.1764-.3086-.0441-.2204-.0441-.4849.0441-.7935.0882-.2645.1763-.485.3086-.7054.1323-.2204.3086-.3968.485-.5731.1763-.1764.3526-.2646.529-.3527.1763-.0882.3527-.0882.4849-.0441.0441 0 .0882.0441.1323.0441.0441.0441.0882.0881.1323.1322.0441.0441.0881.1323.0881.2205 0 .0881 0 .2204-.044.3967 0 .0441-.0441.0882-.0882.1323s-.0882.0441-.1764.0441c-.0441 0-.0881-.0441-.1322-.0882-.0441-.0441-.0441-.0882-.0441-.1763v-.1764-.0882s0-.044-.0441-.044-.1323 0-.2204.044c-.1323.0441-.2205.1323-.3968.2646-.1764.1322-.3086.3086-.3968.4849-.1323.1764-.2204.3968-.2645.5732-.0441.1763-.0882.3526-.0441.4849 0 .1323.0882.2204.1763.2645h.2205c.0882-.0441.2204-.0881.3527-.2204.0881-.0882.2204-.2204.3968-.4409.1322-.1763.3086-.4849.4849-.8376.0441-.0441.0441-.0882.1323-.1323.0441-.0441.0881-.0441.1763 0 .0441.0441.0882.0441.1323.1323.0441.0441.0441.0881 0 .1763-.0882.3968-.1323.6613-.1323.8818 0 .2204.0441.3527.0882.4408l.0441.0441h.0881c.0882 0 .1764-.0441.3087-.1322.1322-.0882.2645-.2205.3967-.3968.1323-.1323.2205-.2646.3086-.3968.0882-.1323.1323-.1764.1323-.1764.0441-.044.0882-.0881.1323-.0881s.1322 0 .1763.0441c.0441.044.0882.0881.0882.1322 0 .0441 0 .1323-.0441.1764 0 0 0 .0441-.0441.0441-.0441.044-.0441.0881-.0882.1322-.044.0441-.0881.1323-.1322.2204-.0441.0882-.1323.1764-.1764.2205-.0881.0882-.1763.1763-.2204.2645-.0882.0882-.1763.1323-.2204.2204-.1764.0882-.3968.1323-.5732.1323z" fill="#11A63C"/>
    <path d="M48.2751 60.3548c.0882-.0881.2204-.2204.3968-.4408.1322-.1764.3086-.485.4849-.8377v-.0441c0-.044 0-.0881.0441-.1322-.0441.0441-.0882.0441-.1323 0-.044 0-.0881-.0441-.1322-.0882-.0441-.0441-.0441-.0882-.0441-.1763v-.1764-.0882s0-.044-.0441-.044-.1322 0-.2204.044c-.1323.0441-.2205.1323-.3968.2646-.1323.1322-.3086.3086-.3968.4849-.1322.1764-.2204.3968-.2645.5731-.0441.1764-.0882.3527-.0441.485 0 .1323.0882.2204.1764.2645h.2204c.1323.0882.2204 0 .3527-.0882zm2.8656-1.0139c.0441.044.0882.0881.0882.1322 0 .0441 0 .1323-.0441.1764 0 0 0 .044-.0441.044-.0441.0441-.0441.0882-.0881.1323-.0441.0441-.0882.1323-.1323.2204-.0441.0882-.1323.1764-.1764.2205-.1322.1763-.3086.3527-.4408.4849-.2205.1764-.3968.2205-.6172.2205-.1764 0-.2646-.0441-.3527-.0882-.0882-.0441-.1323-.1323-.1764-.1764-.0441-.0881-.0882-.1322-.0882-.2204-.044-.0882-.044-.1763-.044-.3086-.0882.0882-.1323.1764-.2205.2645-.0881.0882-.1322.1323-.2204.2205-.1764.1322-.3527.2645-.529.3086-.0882.0441-.1764.0441-.2646.0441h-.1322c-.0441 0-.0882 0-.1323-.0441-.0882-.0441-.1763-.0882-.2645-.1764s-.1323-.1763-.1764-.3086c-.044-.2204-.044-.4849.0441-.7936.0882-.2645.1764-.4849.3086-.7053.1323-.2205.3086-.3968.485-.5732.1763-.1763.3527-.2645.529-.3527.1764-.0881.3527-.0881.485-.044 0 0 .0441-.0001.0882.044.044.0441.0881.0441.1322.0882.0441.0441.0882.0882.0882.1323.0441.0441.0441.1322.0441.2204.0882-.2204.1322-.4409.2204-.6613.0882-.2204.1764-.4409.2645-.6613.0882-.2204.1764-.4409.2646-.6172.0881-.1764.1763-.3968.2204-.5291.0441-.044.0441-.0881.1323-.1322.044-.0441.1322-.0441.1763 0s.0882.0882.1323.1322c.044.0441 0 .1323 0 .1764-.2205.529-.4409 1.014-.6173 1.4549-.1763.4408-.3086.8376-.3967 1.1462-.1323.485-.2205.8377-.2646 1.1463-.044.2204-.044.3527 0 .4408 0 .0882.0441.1764.0882.1764l.0441.0441c.0441 0 .0882.0441.1323.0441.0881 0 .1763-.0441.3086-.1323.1322-.0882.2645-.2204.3968-.3968.044-.0882.1322-.1322.1763-.2204s.0882-.1323.1323-.1764c.044-.0441.0881-.1322.1322-.1763.0441-.0441.0882-.0882.1323-.0882.0882-.1763.1322-.1322.1763-.1322z" fill="#11A63C"/>
    <path d="M52.4192 58.3709c-.0882 0-.2205.0441-.3086.1323-.1323.0441-.2645.1763-.3968.3086-.1323.1322-.2204.2645-.3086.4409-.0882.1763-.1323.3527-.1764.529.2205-.0441.4409-.0882.6173-.2204.1763-.1323.3526-.2646.4849-.485.0882-.1322.1764-.2645.1764-.3968.044-.1322.044-.2204 0-.2645 0-.0441 0-.0441-.0882-.0441zm-.485 2.6452c-.4408 0-.7935-.1322-1.014-.3968-.0441-.0881-.1322-.1763-.1763-.3526-.0441-.1323-.0441-.3527 0-.5732.0441-.2204.1322-.4408.2204-.6613.0882-.2204.2645-.3968.3968-.5731.1323-.1323.3086-.2645.485-.3527.1763-.0882.3086-.1323.4849-.1763.1323 0 .2645 0 .3527.044.0882.0441.1764.1323.2204.2646.0441.1322.0441.3086 0 .4849-.044.1764-.1322.3968-.2645.5731-.0882.1323-.1763.2205-.3086.3527-.1323.0882-.2204.1764-.3527.2646-.2645.1322-.529.2204-.8376.2645.0441.1322.1763.2645.3086.3086.1322.0441.2645.0882.4408.0882.4409 0 .8377-.1764 1.1904-.5291.0882-.0882.1323-.1322.1763-.2204.0441-.0882.0882-.1323.1323-.1764.0441-.044.0882-.1322.1323-.1763.044-.0441.0881-.0882.1322-.1323h.1764c.0441.0441.0881.0882.0881.1323v.1763s0 .0441-.044.0882c-.0441.0441-.0441.0882-.0882.1323s-.0882.1322-.1764.2204c-.0441.0882-.1322.1764-.2204.2204-.2204.2205-.485.3968-.7054.5291-.2204.1322-.4849.1763-.7495.1763zM56.4752 57.2247c0 .0441-.0441.1323-.1322.1764-.0441.044-.1323.0881-.1764.0881s-.0882 0-.1322-.0441c-.0441-.044-.0441-.0881 0-.1763 0-.0441.044-.1323.1322-.1764.0441-.044.1323-.0881.1764-.0881.044 0 .1322 0 .1322.0441.0441.044.0441.1322 0 .1763zm-.3968 3.7915c-.1322 0-.2645-.0441-.3527-.0882-.0881-.0441-.1322-.1323-.1763-.1764-.1764-.2204-.2204-.6172-.1323-1.1462.0441-.3968.2205-.9258.3968-1.543 0-.0441.0441-.0882.1323-.1323.0441-.0441.1322-.0441.1763 0s.0882.0441.1323.1323c.0441.044.0441.1322 0 .1763-.1323.4409-.2645.7495-.3086 1.0581-.0441.2645-.0882.4849-.1323.6613v.3968c0 .0881.0441.1322.0441.1763l.0441.0441c.0441 0 .0441.0441.1323.0441.0881 0 .1763-.0441.3086-.1323.1322-.0882.2645-.2204.3967-.3968.0441-.0881.1323-.1322.1764-.2204s.0882-.1323.1322-.1763c.0441-.0441.0882-.1323.1323-.1764s.0882-.0882.1323-.0882h.1763c.0441.0441.0882.0882.0882.1323v.1763s0 .0441-.0441.0441c-.0441.0441-.0441.0882-.0882.1323s-.0881.1323-.1322.2204c-.0441.0882-.1323.1764-.1764.2205-.1322.1763-.3086.3527-.4408.4849-.2205.1323-.4409.1764-.6173.1764z" fill="#11A63C"/>
    <path d="M57.0042 61.0602c-.0441 0-.0441 0-.0881-.0441-.0441-.0441-.0882-.0441-.1323-.1322-.0441-.0441-.0441-.0882 0-.1764.0882-.3086.1763-.5731.2645-.7936.0882-.2645.1764-.529.3086-.8376.1323-.3086.2205-.6613.3527-1.014.0441-.0441.0441-.0882.1323-.1323.0441-.044.1322-.044.1763 0 .0441.0441.0882.0441.1323.1323.0441.0441.0441.0882 0 .1764-.0441.1322-.0882.2645-.1323.3967-.0441.1323-.0881.2645-.1322.3968.0881-.1323.1763-.2204.2645-.3527.0882-.0882.1763-.1763.2204-.2645.3086-.3086.5291-.485.7495-.485.0882 0 .1763 0 .2204.0441s.0882.0882.1323.0882c.0882.1323.1323.2645.0882.4409-.0441.1763-.0882.4408-.1323.7054 0 .044-.0441.0881-.0441.1322 0 .0441-.0441.0882-.0441.1323-.0881.2645-.1322.529-.1322.7054v.2204c0 .0441 0 .0882.0441.0882 0 0 .044 0 .044.0441h.0882c.0882 0 .1764-.0441.3086-.1323.1323-.0882.2645-.2204.3968-.3968.0441-.0881.1323-.1322.1764-.2204.044-.0882.0881-.1323.1322-.1764.0441-.044.0882-.1322.1323-.1763s.0881-.0882.1322-.0882c.0441 0 .1323 0 .1764.0441s.0882.0882.0882.1323 0 .1322-.0441.1763c0 0 0 .0441-.0441.0441-.0441.0441-.0441.0882-.0882.1323s-.0882.1322-.1323.2204c-.044.0882-.1322.1763-.1763.2204-.1763.1764-.3086.3527-.4409.485-.2204.1763-.3968.2645-.6172.2645-.2204 0-.3527-.0882-.4849-.2204l-.1323-.2646v-.3086c0-.1322.0441-.2645.0441-.3967.0441-.1323.0441-.2646.0882-.4409l.0881-.3086c.0441-.0882.0441-.2205.0882-.3086.0441-.0882.0441-.1764.0441-.2645v-.1323-.0882s-.0441.0441-.0882.0441c-.0441.0441-.1322.0882-.2204.1764-.0882.0881-.1764.2204-.3086.3527-.1323.1763-.2645.3526-.4409.6172-.0882.1763-.2204.3086-.3086.4849-.0882.1764-.1763.3086-.2645.3968-.0882.1323-.1323.2645-.2205.3968-.1322.2204-.2204.2645-.2645.2645zM71.3765 63.0001c-.3527 0-.7495-.0441-1.1022-.1764-.4849-.1322-.8817-.3967-1.1903-.7935-.2204-.3527-.3968-.7495-.4409-1.2345-.0441-.2204-.0441-.4408-.0441-.7053 0-.2205.0441-.485.0441-.7054.0441-.2646.0441-.485.0882-.7054.0441-.2205.0882-.485.1323-.7054.0441-.3086.0881-.5731.1322-.8377.0441-.2645.0882-.4849.0882-.7054 0-.1322 0-.2204-.0441-.3086 0-.0881-.0441-.1322-.0441-.1763-.0441-.0441-.0441-.0441-.0881-.0882-.0441 0-.0441 0-.0441-.0441-.3086-.0881-.6613.0441-1.014.3968-.1764.1764-.3527.3527-.5732.6172-.1763.2645-.3967.5291-.5731.8377-.1763.3086-.3968.6172-.529.9699-.1764.3086-.3086.6172-.4409.9258-.1323.3086-.2645.5291-.3527.7495-.0882.2204-.1763.3968-.2204.4849-.0441.0441-.0441.0882-.1323.1323-.0441.0441-.0882.0441-.1763 0-.0441 0-.0882-.0441-.1323-.1323-.0441-.0441-.0441-.1322 0-.1763.0441-.1764.1323-.3968.1764-.529.044-.1764.0881-.3527.1763-.5732.0441-.2204.0882-.4408.1764-.6613.044-.2645.0881-.529.1322-.7495.0441-.2204.0441-.4408.0441-.6613 0-.4849-.0441-.7935-.1763-1.014-.0882-.1322-.2205-.2204-.3527-.2204-.1764 0-.3087 0-.4409.0441-.1323.0441-.2645.0882-.3968.1763-.1323.0882-.2204.1764-.3086.2646-.0882.0881-.1763.1763-.2645.3086-.1764.2204-.3086.4408-.3968.7054-.1323.2645-.2204.529-.2645.7935-.0441.2645-.0882.5291-.0882.7495 0 .2204.0441.4409.0882.6172.0441.0441.0441.0882 0 .1764-.0441.044-.0882.0881-.1323.1322h-.1763c-.0441-.0441-.0882-.0882-.1323-.1322-.0882-.2205-.1323-.4409-.1323-.7054s.0441-.5732.1323-.8818.1764-.5731.3086-.8817c.1323-.2645.2645-.529.4409-.7495.2204-.3086.4849-.529.7935-.7054.3527-.1763.6614-.2645 1.014-.2204.3087.0441.5732.1764.7054.4409.1764.3086.2646.7054.2646 1.2785 0 .1322 0 .3086-.0441.4849 0 .1764-.0441.3527-.0882.5291.0882-.1764.1763-.3527.2645-.485.0882-.1763.1764-.3527.3086-.4849.2205-.3527.4409-.6613.6172-.9258.2205-.2646.3968-.485.6173-.6614.529-.4408.9699-.6172 1.4548-.4849.2205.0441.3527.1763.4409.3968.0441.1322.0882.3527.0882.6172 0 .2204-.0441.4849-.0882.7495-.0441.2645-.0882.5731-.1764.8817-.0441.2204-.0881.4409-.1322.6613-.0441.2204-.0882.4409-.0882.7054-.0441.2204-.0441.4409-.0441.7054 0 .2204 0 .4409.0441.6613.0441.4409.1764.8376.3968 1.1022.2204.2645.4849.4408.8817.5731.8377.2204 1.5871.1763 2.3366-.1764.1323-.044.2645-.1322.3968-.2204.1323-.0882.2204-.1323.2645-.1763.0882-.0441.1323-.1323.2204-.2205.0441-.0441.0882-.0881.1323-.0881s.1323-.0001.1764.044c.044.0441.0881.0882.0881.1764s0 .1322-.0441.1322c0 0-.044.0441-.0881.0882s-.1323.0882-.1764.1764c-.0881.0441-.1763.1322-.3086.2204-.1322.0882-.2645.1763-.4409.2204-.3967.1764-.7494.2646-1.1462.3527-.1323-.1763-.2645-.1763-.3968-.1763z" fill="#11A63C"/>
    <path d="M73.4045 57.6655c-.0441 0-.0441 0 0 0-.0441.0441-.0882.0882-.0882.1323V58.0182c0 .0441.0441.0882.0441.1323.0441.044.0882.1322.1323.1763l.0441.0441v-.3086c0-.0882-.0441-.1764-.0882-.2645l-.0441-.0441v-.0882zm-2.2043 1.1463c0 .0441-.0441.1322-.0441.1763v.2204c0 .2205.0441.4409.1763.5732.0882.1322.2205.1763.3527.2204.0882-.1323.1323-.2645.1764-.4409.0441-.1763.0441-.3086.0441-.4849 0-.2204-.0441-.3527-.0882-.485-.0441-.1322-.1323-.2204-.2205-.2204-.0881 0-.1322.0441-.1763.0882s-.1323.1322-.1323.2204c-.0881.0441-.0881.0882-.0881.1323zm-.5291.3527l-.0441.0881c-.0881.1323-.1322.2646-.1763.3968-.0441.1323-.0882.2645-.0882.3968 0 .0441 0 .1323.0441.1763 0 .0882.0441.1323.0882.1764.0881.0882.2204.1322.3968.1322.1763 0 .3526-.044.4849-.1763-.1763-.0441-.3086-.1763-.4409-.3527-.0881-.0882-.1322-.2204-.1763-.3968-.0441-.1322-.0441-.3086-.0441-.4408h-.0441zm.1764 1.8516c-.1764 0-.3527-.0441-.485-.0882-.1322-.0441-.2204-.1322-.2645-.2204-.1323-.1764-.2204-.3968-.2204-.6613 0-.1764.044-.3527.0881-.529.0441-.1764.1323-.3527.2205-.5291.0881-.1763.1763-.3086.3086-.3968.0881-.0881.1763-.1322.2645-.1763 0-.0441.0441-.0882.0441-.0882.1763-.3086.3968-.4409.7054-.4409.2645 0 .4408.1323.5731.3968.0882.2205.1323.485.1323.7495 0 .3086-.0441.6172-.1764.8817.6172-.1763 1.014-.5731 1.2785-1.1903-.0881-.0441-.1763-.0882-.2204-.1764-.1764-.1322-.2645-.3086-.3086-.4849-.0441-.1764-.0441-.3527 0-.485.0441-.1322.0882-.2204.1763-.3086.0882-.0881.1764-.1322.2646-.1322.2204 0 .3967.0881.4849.3086.1323.2204.1764.4849.1323.8376l-.0441.1323h.2645c.0882-.0441.2204-.0441.3086-.0882.0882-.0441.1764-.0882.2645-.1322.0882-.0441.1323-.0882.2205-.1323.0441-.0441.1322-.0882.1763-.1323s.0882-.0441.1323-.0441.0881 0 .1322.0441c.0441.0441.0882.0882.0882.1323v.1323c-.1323.4408-.2645.7494-.3086 1.058-.0441.2646-.0882.485-.1323.6613v.3968c0 .0882.0441.1323.0441.1764l.0441.044c.0441 0 .0441.0441.1323.0441.0881 0 .1763-.0441.3086-.1322.1322-.0882.2645-.2205.3968-.3968.044-.0882.1322-.1323.1763-.2204.0441-.0882.0882-.1323.1323-.1764s.0881-.1322.1322-.1763c.0441-.0441.0882-.0882.1323-.0882h.1763c.0441.0441.0882.0882.0882.1323 0 .044 0 .1322-.0441.1763 0 0 0 .0441-.0441.0441 0 .0441-.0441.0882-.0881.1322-.0441.0441-.0882.1323-.1323.2205s-.1323.1763-.1764.2204c-.1322.1764-.3086.3527-.4408.485-.2205.1763-.3968.2204-.6172.2204-.1323 0-.2646-.0441-.3527-.0882-.0882-.0441-.1323-.1322-.1764-.1763-.1763-.2205-.2204-.6172-.1322-1.1463.0441-.2645.0881-.5731.2204-.9258-.0441.0441-.1323.0441-.2204.0882-.3086.1322-.6172.1763-.8818.1322-.0881.2205-.1763.4409-.3086.6173-.1322.1763-.2645.3526-.4408.4849-.1764.1323-.3527.2204-.5732.3086-.2204.0882-.3967.1323-.6172.1323-.1322.1322-.2204.2645-.3527.3527 0 .1763-.2204.2204-.4849.2204z" fill="#11A63C"/>
    <path d="M76.2701 61.0602c-.0441 0-.0441 0-.0882-.0441s-.0881-.0441-.1322-.1322c-.0441-.0441-.0441-.0882 0-.1764 0 0 .0441-.0882.0881-.2204.0441-.1323.1323-.3527.1764-.5732.0441-.2204.1763-.529.3086-.8376.0882-.3086.2204-.6613.3527-1.014 0-.0441.0441-.0882.1322-.1323.0441-.044.1323-.044.1764 0 .0441.0441.0882.0441.1323.1323.044.0441.044.1323 0 .1764l-.2646.7935c.0882-.1323.1764-.2204.2646-.3527.0881-.0882.1763-.1763.2204-.2645.1323-.1764.3086-.3086.3968-.3527.1322-.0882.2204-.1323.3527-.1323.0441 0 .1322 0 .1763.0441s.0882.0441.1323.0882.0441.0882.0881.1323c0 .044.0441.1322.0441.2645v.3968c0 .1763-.0441.3527-.0881.6172l.0881-.0882c.1323-.2204.2646-.3968.3527-.529.1323-.1764.2205-.3086.3527-.3968.1323-.1764.3086-.3086.3968-.3527.1323-.0882.2204-.1323.3527-.1323.0882 0 .1763 0 .2204.0441s.0882.0882.1323.0882c.0882.1322.1323.2645.0882.4409-.0441.1763-.0882.4408-.1323.7053l-.0882.3087c-.0441.1322-.0441.2645-.0881.3967-.0441.1323-.0441.2205-.0441.3086v.2205c0 .0441 0 .0881.0441.0881 0 0 .044.0001.044.0441h.0882c.0882 0 .1764-.044.3086-.1322.1323-.0882.2645-.2205.3968-.3968.0441-.0882.1323-.1323.1764-.2204.044-.0882.0881-.1323.1322-.1764.0441-.0441.0882-.1322.1323-.1763s.0882-.0882.1322-.0882h.1764c.0441.0441.0882.0882.0882.1323v.1763s0 .0441-.0441.0441c-.0441.0441-.0441.0882-.0882.1322-.0441.0441-.0882.1323-.1323.2205-.044.0882-.1322.1763-.1763.2204-.1323.1764-.3086.3527-.4409.485-.2204.1763-.3968.2204-.6172.2204-.2204 0-.3527-.0882-.485-.2204-.044-.0882-.0881-.1764-.0881-.2646v-.3086c0-.1322.0441-.2645.0441-.3967.0441-.1323.0441-.2646.0881-.4409l.0882-.3086c.0441-.0882.0441-.2205.0882-.3086.0441-.0882.0441-.1764.0441-.2645v-.2205s-.0441.0441-.0882.0441c-.0441.0441-.1323.0882-.2204.1764-.0882.0881-.1764.2204-.3086.3527-.1323.1763-.2646.3526-.4409.6172-.0882.1763-.2204.3086-.3086.4849-.0882.1764-.1764.3086-.2645.3968-.0882.1323-.1323.2645-.2205.3968-.0441.0441-.0441.0882-.1322.1322h-.1764c-.0441-.044-.0882-.044-.1322-.1322-.0441-.0441-.0441-.0882 0-.1764 0-.044.044-.0881.044-.1763 0-.0882.0441-.1764.0882-.2645.0441-.0882.0441-.2205.0882-.3527.0441-.1323.0441-.2645.0882-.3968.0441-.1764.0441-.3527.0881-.4409 0-.1322.0441-.2204.0441-.3086v-.2204-.1323c-.0441 0-.0881.0441-.1322.0882-.0441.0441-.1323.0882-.2205.1763-.0881.0882-.1763.2205-.3086.3527-.1322.1323-.2645.3527-.3968.5732-.0881.1763-.2204.3086-.3086.4849-.0881.1764-.1763.3086-.2645.3968-.0882.1323-.1322.2645-.2204.3968 0 .0441-.0441.0882-.0882.0882-.2204.1322-.2645.1763-.3086.1763z" fill="#11A63C"/>
    <path d="M83.9412 61.0161c-.2204 0-.3527-.0882-.4849-.2204-.0882-.1323-.1764-.3086-.1764-.5291-.0441.0882-.1323.1764-.2204.2205-.0882.0881-.1323.1322-.2205.2204-.1763.1322-.3527.2645-.529.3086-.1763.0441-.3527.0441-.4849 0-.0882-.0441-.1764-.0882-.2646-.1764-.0881-.0881-.1322-.1763-.1763-.3086-.0441-.2204-.0441-.4849.0441-.7935.0881-.2645.1763-.485.3086-.7054.1322-.2204.3086-.3968.4849-.5731.1764-.1764.3527-.2646.5291-.3527.1763-.0882.3527-.0882.4849-.0441.0441 0 .0882.0441.1323.0441.0441.0441.0882.0881.1322.1322.0441.0441.0882.1323.0882.2205v.3967c0 .0441-.0441.0882-.0882.1323-.044.0441-.0881.0441-.1763.0441-.0441 0-.0882-.0441-.1323-.0882-.044-.0441-.044-.0882-.044-.1763v-.1764V58.4591c-.0441 0-.1323 0-.2205.044-.1322.0441-.2204.1323-.3968.2646-.1322.1322-.3086.3086-.3967.4849-.1323.1764-.2205.3968-.2646.5732-.0441.1763-.0881.3526-.044.4849 0 .1323.0881.2204.1763.2645h.2204c.0882-.0441.2205-.0881.3527-.2204.0882-.0882.2205-.2204.3968-.4409.1323-.1763.3086-.4849.485-.8376.044-.0441.044-.0882.1322-.1323.0441-.0441.0882-.0441.1764 0 .0441.0441.0881.0441.1322.1323.0441.0441.0441.0881 0 .1763-.0881.3968-.1322.6613-.1322.8818 0 .2204.0441.3527.0881.4408l.0441.0441h.0882c.0882 0 .1763-.0441.3086-.1322.1323-.0882.2645-.2205.3968-.3968.1323-.1323.2204-.2646.3086-.3968.0882-.1323.1323-.1764.1323-.1764.044-.044.0881-.0881.1322-.0881.0441 0 .1323 0 .1764.0441.0441.044.0881.0881.0881.1322 0 .0441 0 .1323-.0441.1764 0 0 .0001.0441-.044.0441-.0441.044-.0441.0881-.0882.1322-.0441.0441-.0882.1323-.1323.2204-.0441.0882-.1322.1764-.1763.2205-.0882.0882-.1764.1763-.2205.2645-.0881.0882-.1763.1323-.2204.2204-.3086.0882-.4849.1323-.6613.1323z" fill="#11A63C"/>
    <path d="M84.8671 61.0602c-.0441 0-.0441 0-.0882-.0441s-.0881-.0441-.1322-.1322c0-.0441-.0441-.0882 0-.1764.0881-.3086.1763-.5731.2645-.7936.0882-.2645.1763-.529.3086-.8376.0882-.3086.2204-.6613.3527-1.014.0441-.0441.0441-.0882.1322-.1323.0441-.044.1323-.044.1764 0 .0441.0441.0882.0441.1323.1323.044.0441.044.0882 0 .1764-.0441.1322-.0882.2645-.1323.3967-.0441.1323-.0882.2645-.1323.3968.0882-.1323.1764-.2204.2646-.3527.0881-.0882.1763-.1763.2204-.2645.3086-.3086.529-.485.7495-.485.0881 0 .1763 0 .2204.0441s.0882.0882.1323.0882c.0881.1323.1322.2645.0881.4409-.044.1763-.0881.4408-.1322.7054 0 .044-.0441.0881-.0441.1322 0 .0441-.0441.0882-.0441.1323-.0882.2645-.1323.529-.1323.7054v.2204c0 .0441 0 .0882.0441.0882 0 0 .0441 0 .0441.0441h.0882c.0882 0 .1763-.0441.3086-.1323.1323-.0882.2645-.2204.3968-.3968.0441-.0881.1322-.1322.1763-.2204s.0882-.1323.1323-.1764c.0441-.044.0882-.1322.1322-.1763.0441-.0441.0882-.0882.1323-.0882s.1323 0 .1764.0441c.044.0441.0881.0882.0881.1323s0 .1322-.0441.1763c0 0 0 .0441-.044.0441-.0441.0441-.0441.0882-.0882.1323s-.0882.1322-.1323.2204-.1322.1763-.1763.2204c-.1764.1764-.3086.3527-.4409.485-.2204.1763-.3968.2645-.6172.2645-.2204 0-.3527-.0882-.485-.2204-.044-.0882-.0881-.1764-.1322-.2646v-.3086c0-.1322.0441-.2645.0441-.3967.0441-.1323.0441-.2646.0881-.4409l.0882-.3086c.0441-.0882.0441-.2205.0882-.3086.0441-.0882.0441-.1764.0441-.2645v-.1323-.0882s-.0441.0441-.0882.0441c-.0441.0441-.1323.0882-.2204.1764-.0882.0881-.1764.2204-.3086.3527-.1323.1763-.2646.3526-.4409.6172-.0882.1763-.2204.3086-.3086.4849-.0882.1764-.1764.3086-.2645.3968-.0882.1323-.1323.2645-.2205.3968-.1322.2204-.1763.2645-.2645.2645z" fill="#11A63C"/>
    <path d="M89.3198 60.3548c.0882-.0881.2205-.2204.3968-.4408.1323-.1764.3086-.485.485-.8377v-.0441c0-.044 0-.0881.0441-.1322-.0441.0441-.0882.0441-.1323 0-.0441 0-.0882-.0441-.1323-.0882-.044-.0441-.044-.0882-.044-.1763v-.1764-.0882s0-.044-.0441-.044-.1323 0-.2205.044c-.1322.0441-.2204.1323-.3967.2646-.1764.1322-.3086.3086-.3968.4849-.1323.1764-.2205.3968-.2645.5731-.0441.1764-.0882.3527-.0441.485 0 .1323.0881.2204.1763.2645h.2205c.0881.0882.2204 0 .3526-.0882zm2.8216-1.0139c.0441.044.0882.0881.0882.1322 0 .0441 0 .1323-.0441.1764 0 0 0 .044-.0441.044-.0441.0441-.0441.0882-.0882.1323s-.0882.1323-.1322.2204c-.0441.0882-.1323.1764-.1764.2205-.1322.1763-.3086.3527-.4409.4849-.2204.1764-.3967.2205-.6172.2205-.1322 0-.2645-.0441-.3527-.0882-.0881-.0441-.1322-.1323-.1763-.1764-.0441-.0881-.0882-.1322-.0882-.2204-.0441-.0882-.0441-.1763-.0441-.3086-.0881.0882-.1322.1764-.2204.2645-.0882.0882-.1323.1323-.2204.2205-.1764.1322-.3527.2645-.5291.3086-.0882.0441-.1763.0441-.2645.0441h-.1323c-.044 0-.0881 0-.1322-.0441-.0882-.0441-.1764-.0882-.2645-.1764-.0882-.0882-.1323-.1763-.1764-.3086-.0441-.2204-.0441-.4849.0441-.7936.0882-.2645.1764-.4849.3086-.7053.1323-.2205.3086-.3968.485-.5732.1763-.1763.3527-.2645.529-.3527.1763-.0881.3527-.0881.485-.044 0 0 .044-.0001.0881.044.0441 0 .0882.0441.1323.0882s.0882.0882.0882.1323c.044.0441.0441.1322.0441.2204.0881-.2204.1322-.4409.2204-.6613.0882-.2204.1763-.4409.2645-.6613.0882-.2204.1763-.4409.2645-.6172.0882-.1764.1764-.3968.2205-.5291.044-.044.044-.0881.1322-.1322.0441-.0441.1323-.0441.1764 0 .044.0441.0881.0882.1322.1322.0441.0441 0 .1323 0 .1764-.2204.529-.4408 1.014-.6172 1.4549-.1763.4408-.3086.8376-.3968 1.1462-.1322.485-.2204.8377-.2645 1.1463-.0441.2204-.0441.3527 0 .4408 0 .0882.0441.1764.0882.1764l.0441.0441c.0441 0 .0881.0441.1322.0441.0882 0 .1764-.0441.3086-.1323.1323-.0882.2646-.2204.3968-.3968.0441-.0882.1323-.1322.1764-.2204.044-.0882.0881-.1323.1322-.1764.0441-.0441.0882-.1322.1323-.1763s.0882-.0882.1322-.0882c.0882-.1763.1323-.1322.1764-.1322z" fill="#11A63C"/>
    <path d="M92.8908 57.2247c0 .0441-.0441.1323-.1323.1764-.0441.044-.1322.0881-.1763.0881s-.0882 0-.1323-.0441c-.0441-.044-.0441-.0881 0-.1763 0-.0441.0441-.1323.1323-.1764.0441-.044.1322-.0881.1763-.0881s.1323 0 .1323.0441c0 .044.0441.1322 0 .1763zm-.3968 3.7915c-.1322 0-.2645-.0441-.3527-.0882-.0881-.0441-.1322-.1323-.1763-.1764-.1764-.2204-.2205-.6172-.1323-1.1462.0441-.3968.2205-.9258.3968-1.543 0-.0441.0441-.0882.1323-.1323.044-.0441.1322-.0441.1763 0s.0882.0441.1323.1323c.044.044.044.1322 0 .1763-.1323.4409-.2646.7495-.3086 1.0581-.0441.2645-.0882.4849-.1323.6613v.3968c0 .0881.0441.1322.0441.1763l.0441.0441c.0441 0 .0441.0441.1322.0441.0882 0 .1764-.0441.3086-.1323.1323-.0882.2646-.2204.3968-.3968.0441-.0881.1323-.1322.1764-.2204.044-.0882.0881-.1323.1322-.1763.0441-.0441.0882-.1323.1323-.1764s.0882-.0882.1322-.0882h.1764c.0441.0441.0882.0882.0882.1323v.1763s0 .0441-.0441.0441c-.0441.0441-.0441.0882-.0882.1323s-.0882.1323-.1323.2204c-.044.0882-.1322.1764-.1763.2205-.1323.1763-.3086.3527-.4409.4849-.2204.1323-.4408.1764-.6172.1764z" fill="#11A63C"/>
    <path d="M95.2275 58.3709s-.0441 0 0 0c-.0882 0-.2205.0441-.3086.1323-.1323.0441-.2646.1763-.3968.3086-.1323.1322-.2205.2645-.3086.4409-.0882.1763-.1764.3527-.1764.529.2205-.0441.4409-.0882.6172-.2204.1764-.1323.3527-.2646.485-.485.0882-.1322.1763-.2645.1763-.3968.0441-.1322.0441-.2204 0-.2645 0-.0441-.0441-.0441-.0881-.0441zm-.485 2.6452c-.4409 0-.7935-.1322-1.014-.3968-.0441-.0881-.1322-.1763-.1763-.3526-.0441-.1323-.0441-.3527 0-.5732.0441-.2204.1322-.4408.2204-.6613.0882-.2204.2645-.3968.3968-.5731.1322-.1323.3086-.2645.4849-.3527.1764-.0882.3086-.1323.485-.1763.1322 0 .2645 0 .3527.044.0882.0441.1763.1323.2204.2646.0441.1322.0441.3086 0 .4849-.0441.1764-.1322.3968-.2645.5731-.0882.1323-.1764.2205-.3086.3527-.1323.0882-.2204.1764-.3527.2646-.2645.1322-.529.2204-.8376.2645.044.1322.1763.2645.3086.3086.1322.0441.2645.0882.4408.0882.4409 0 .8377-.1764 1.1904-.5291.0881-.0882.1322-.1322.1763-.2204s.0882-.1323.1323-.1764c.0441-.044.0881-.1322.1322-.1763l.1323-.1323h.1763c.0441.0441.0882.0882.0882.1323v.1763s0 .0441-.0441.0882-.0441.0882-.0882.1323c-.044.0441-.0881.1322-.1763.2204-.0441.0882-.1323.1764-.2204.2204-.2205.2205-.485.3968-.7054.5291-.2204.1322-.485.1763-.7495.1763zM100.65 55.9461v.0882s-.044.0882-.088.3086c-.044.1764-.088.3968-.176.6613-.089.2645-.133.5731-.221.8817s-.1761.6173-.2643.9259c-.0882.2645-.1323.529-.2204.7494-.0441.2205-.1323.3527-.1323.3968-.0441.0441-.0882.0882-.1323.0882-.044 0-.1322 0-.1763-.0441s-.0882-.0882-.0882-.1323c0-.044 0-.1322.0441-.1763s.0441-.1323.1323-.3527c.0441-.1763.1322-.4409.2204-.7054s.1763-.5731.2204-.8817c.0882-.3086.1323-.5731.2205-.8377.0881-.2645.1321-.4849.1761-.6613.044-.1763.088-.2645.088-.3086 0-.0441.044-.1322.089-.1322.044-.0441.088-.0441.176-.0441.044.0441.088.0881.132.1763zm-1.3224 4.8496c0 .044-.0441.1322-.1323.1763-.0441.0441-.1322.0882-.1763.0882s-.0882 0-.1323-.0441-.0441-.0882 0-.1763c0-.0441.0441-.1323.1323-.1764.0441-.0441.1322-.0882.1763-.0882s.1323 0 .1323.0441v.1764z" fill="#11A63C"/>
  </g>
  <defs>
    <clipPath id="clip0">
      <path fill="#fff" d="M0 0h177.053v63H0z"/>
    </clipPath>
  </defs>
</svg>
