<svg width="4" height="64" viewBox="0 0 4 64" fill="none" xmlns="http://www.w3.org/2000/svg">
<path d="M0.469177 1.92159V2.13159C0.469177 2.95059 1.09918 3.58059 1.96018 3.58059C2.80018 3.58059 3.43018 2.95059 3.43018 2.13159V1.92159C3.43018 1.10259 2.80018 0.472586 1.96018 0.472586C1.09918 0.472586 0.469177 1.10259 0.469177 1.92159ZM0.469177 31.9216V32.1316C0.469177 32.9506 1.09918 33.5806 1.96018 33.5806C2.80018 33.5806 3.43018 32.9506 3.43018 32.1316V31.9216C3.43018 31.1026 2.80018 30.4726 1.96018 30.4726C1.09918 30.4726 0.469177 31.1026 0.469177 31.9216ZM0.469177 61.9216V62.1316C0.469177 62.9506 1.09918 63.5806 1.96018 63.5806C2.80018 63.5806 3.43018 62.9506 3.43018 62.1316V61.9216C3.43018 61.1026 2.80018 60.4726 1.96018 60.4726C1.09918 60.4726 0.469177 61.1026 0.469177 61.9216Z" fill="white"/>
</svg>
