<svg width="29" height="34" viewBox="0 0 29 34" fill="none" xmlns="http://www.w3.org/2000/svg">
<path d="M28.6171 18.8985C28.6186 16.6275 28.0721 14.3898 27.024 12.3752C25.976 10.3605 24.4573 8.62852 22.597 7.32614C20.7366 6.02376 18.5895 5.18947 16.3379 4.89409C14.0863 4.5987 11.7966 4.85095 9.66326 5.62942C7.52993 6.40788 5.61593 7.68958 4.08371 9.36572C2.5515 11.0418 1.44632 13.0629 0.861989 15.2574C0.277659 17.4519 0.231432 19.7549 0.72723 21.971C1.22303 24.1872 2.24621 26.251 3.70993 27.9873L2.09914 32.9459L6.83295 30.7314C8.83874 32.0357 11.1447 32.8054 13.5317 32.9675H13.6765C13.8366 32.9675 13.9999 32.9675 14.16 32.9829C14.3202 32.9983 14.468 33.0013 14.6374 33.0013C14.8068 33.0013 14.9454 32.9829 15.1025 32.9767H15.3704C18.762 32.7952 21.9716 31.386 24.4005 29.012C26.8295 26.638 28.3118 23.4615 28.5709 20.075C28.5955 19.7732 28.6109 19.4652 28.6171 19.151C28.6171 19.1079 28.6171 19.0648 28.6171 19.0186C28.614 18.9816 28.6171 18.9385 28.6171 18.8985Z" fill="#11A63C"/>
<path d="M6.66238 19.299V19.341C6.66238 20.349 7.43938 21.126 8.48938 21.126C9.53938 21.126 10.3164 20.349 10.3164 19.341V19.299C10.3164 18.291 9.53938 17.514 8.48938 17.514C7.43938 17.514 6.66238 18.291 6.66238 19.299ZM12.6712 19.299V19.341C12.6712 20.349 13.4482 21.126 14.4982 21.126C15.5482 21.126 16.3252 20.349 16.3252 19.341V19.299C16.3252 18.291 15.5482 17.514 14.4982 17.514C13.4482 17.514 12.6712 18.291 12.6712 19.299ZM18.68 19.299V19.341C18.68 20.349 19.457 21.126 20.507 21.126C21.557 21.126 22.334 20.349 22.334 19.341V19.299C22.334 18.291 21.557 17.514 20.507 17.514C19.457 17.514 18.68 18.291 18.68 19.299Z" fill="white"/>
</svg>
