<svg width="26" height="32" viewBox="0 0 26 32" fill="none" xmlns="http://www.w3.org/2000/svg">
<path d="M25.0042 18.5102C25.0055 16.4988 24.5214 14.5167 23.5932 12.7323C22.6649 10.948 21.3198 9.41387 19.6721 8.26033C18.0243 7.10679 16.1226 6.36784 14.1282 6.10621C12.1339 5.84459 10.1059 6.06801 8.21641 6.75751C6.32688 7.44701 4.63161 8.58224 3.2745 10.0668C1.91739 11.5514 0.938508 13.3415 0.420956 15.2852C-0.0965962 17.2289 -0.13754 19.2687 0.301597 21.2316C0.740734 23.1945 1.64699 25.0224 2.94343 26.5603L1.51672 30.9522L5.70955 28.9908C7.48611 30.146 9.52854 30.8278 11.6428 30.9713H11.771C11.9128 30.9713 12.0574 30.9713 12.1993 30.985C12.3411 30.9986 12.4721 31.0013 12.6221 31.0013C12.7721 31.0013 12.8949 30.985 13.034 30.9795H13.2714C16.2753 30.8187 19.1181 29.5706 21.2695 27.4679C23.4208 25.3652 24.7337 22.5517 24.9632 19.5522C24.9851 19.2849 24.9987 19.0121 25.0042 18.7338C25.0042 18.6957 25.0042 18.6575 25.0042 18.6165C25.0014 18.5838 25.0042 18.5456 25.0042 18.5102Z" fill="#272A2C"/>
<path d="M5.38453 19.446V19.656C5.38453 20.475 6.01453 21.105 6.87553 21.105C7.71553 21.105 8.34553 20.475 8.34553 19.656V19.446C8.34553 18.627 7.71553 17.997 6.87553 17.997C6.01453 17.997 5.38453 18.627 5.38453 19.446ZM11.0242 19.446V19.656C11.0242 20.475 11.6542 21.105 12.5152 21.105C13.3552 21.105 13.9852 20.475 13.9852 19.656V19.446C13.9852 18.627 13.3552 17.997 12.5152 17.997C11.6542 17.997 11.0242 18.627 11.0242 19.446ZM16.6638 19.446V19.656C16.6638 20.475 17.2938 21.105 18.1548 21.105C18.9948 21.105 19.6248 20.475 19.6248 19.656V19.446C19.6248 18.627 18.9948 17.997 18.1548 17.997C17.2938 17.997 16.6638 18.627 16.6638 19.446Z" fill="white"/>
</svg>
