<svg width="14" height="9" viewBox="0 0 14 9" fill="none" xmlns="http://www.w3.org/2000/svg">
<path fill-rule="evenodd" clip-rule="evenodd" d="M12.8285 5.64249L8.88034 3.02011C8.09835 2.45196 7.31315 1.87474 6.35996 1.55957C6.22956 1.51645 6.03956 1.52052 5.91876 1.57771C5.28976 1.87548 4.67296 2.19509 4.05457 2.51173C3.40297 2.84559 2.60598 2.7005 2.11078 2.15215C1.68938 1.6856 1.69638 0.929793 2.12558 0.426044C2.17258 0.370895 2.21438 0.312044 2.27718 0.2308C2.16318 0.224878 2.09598 0.228394 2.03198 0.21692C1.69378 0.156219 1.49218 0.263927 1.37778 0.581314C1.10038 1.35082 0.791786 2.1107 0.503587 2.87687C0.478387 2.94386 0.300988 3.55384 0.279788 3.79035L0.195589 4.5543C0.195589 4.80044 0.189389 5.00679 0.200389 5.2124C0.202789 5.25755 0.259188 5.31252 0.306388 5.33769C0.328388 5.34953 0.398588 5.30974 0.428587 5.27828C0.530387 5.17187 0.639586 5.03714 0.748386 4.95312C1.13178 4.65739 1.62838 4.6894 1.98398 4.83486C2.26098 5.01234 2.23958 5.01234 2.59918 4.90075C2.97237 4.7849 3.32457 4.82876 3.65417 5.01456C3.78377 5.08766 3.88517 5.11653 4.03537 5.04787C4.72476 4.73289 5.51816 5.21425 5.70076 5.72521C5.72716 5.79924 5.84216 5.88178 5.92856 5.89603C6.78255 6.03686 7.22935 6.76177 7.03475 7.38729C6.96975 7.59604 6.92015 7.80905 6.86695 8.02095C6.83535 8.14661 6.84375 8.241 6.99375 8.3252C7.28135 8.48695 7.54755 8.68145 7.82095 8.86467C8.21895 9.13172 8.65714 8.99051 8.77814 8.5545C8.82974 8.36851 8.80054 8.231 8.59774 8.1133C8.28034 7.92898 8.01335 7.71301 7.69115 7.49444C7.52355 7.38081 7.62995 7.16095 7.86335 7.25182C7.89935 7.26589 7.93975 7.29698 7.97755 7.32214C8.47214 7.65193 8.96534 7.98339 9.46134 8.31114C9.73154 8.48954 10.0269 8.42995 10.2441 8.15994C10.4517 7.90196 10.4161 7.66415 10.1423 7.47816C9.58194 7.09785 9.02154 6.71772 8.46154 6.33686C8.34474 6.25746 8.15175 6.17826 8.27754 6.02132C8.40895 5.85735 8.54674 6.02058 8.66114 6.09609C9.36314 6.55968 10.0649 7.02345 10.7597 7.49629C10.9317 7.61325 11.0769 7.74076 11.3141 7.63657C11.5855 7.51721 11.7547 7.32696 11.7701 7.05473C11.7757 6.95535 11.7041 6.81488 11.6177 6.75473C11.0189 6.33723 10.4085 5.93397 9.79794 5.53127C9.67194 5.44817 9.54754 5.35693 9.67234 5.22424C9.70994 5.18408 9.91074 5.22517 9.99674 5.28143C10.7627 5.78203 11.5233 6.28985 12.2761 6.80711C12.4281 6.91149 12.5521 6.91759 12.7163 6.85226C13.2627 6.63481 13.3319 5.98727 12.8285 5.64249Z" fill="#11A63C"/>
</svg>
