<svg width="41" height="24" fill="none" xmlns="http://www.w3.org/2000/svg">
  <path fill-rule="evenodd" clip-rule="evenodd" d="M36.5443 9.86469c-.3549-1.90944-1.1097-3.68784-2.3069-5.26949-.2205-.29137-.4073-.38064-.7959-.32113-.9744.14835-1.9611.25495-2.9465.28826-.5211.01777-1.0942-.05196-1.5662-.25406-2.8026-1.20011-5.6201-2.37713-8.3548-3.713153-1.5557-.759954-2.8773-.858113-4.392.093273-1.6564 1.04022-3.4572 1.86058-5.1869 2.79109-1.51977.81769-1.77215 2.73556-.5166 3.81887.7908.68267 1.957.69244 3.0599.06617 1.5024-.85322 3.0158-1.68913 4.5346-2.51526.1877-.10216.4865-.20032.6487-.12525 1.3325.61915 2.6914 1.20455 3.9501 1.94852 1.2382.73152 2.3625 1.64471 3.5487 2.46196l6.1427 4.32391c.3977.2722.8501.4925 1.1822.827.8359.8421 1.7265.9372 2.8349.5316.4783-.175.6236-.3504.5849-.7723-.1289-1.3951-.1658-2.8071-.4209-4.18001zM17.8507 17.845c-.5303.0267-1.0478.2878-1.5061.4237.0356-.3966.2287-.95.0861-1.4026-.148-.4695-.5443-.9705-.9767-1.2148-.3435-.1945-.9557-.1417-1.3548.0205-.4091.1665-.7034.6005-1.0405.9105-.1913-.7231-.6386-1.2916-1.4896-1.3876-.8036-.0906-1.404.2839-1.80902 1.0083-.06879-.1088-.11343-.1741-.15307-.2421-.54666-.9381-1.28557-1.2481-2.17845-.9132-.89607.3362-1.25915 1.0722-1.02545 2.092.14486.6316.28381 1.2654.45054 1.8917.22596.847.96395 1.3755 1.82221 1.2401.39679-.0627.55578.0617.76442.3544.57032.8004 1.57802.9318 2.37712.3584.1302-.0937.2605-.1865.4774-.3415-.18.8981.1143 1.5137.8268 1.901.8382.4557 1.5548.1337 2.2021-.4446.0902.2736.1495.5196.2501.7479.2638.5979.9654 1.0349 1.5767 1.0025.6615-.0347 1.3844-.5299 1.5484-1.1499.2679-1.01.5134-2.0281.7052-3.0541.1782-.9442-.5822-1.849-1.5534-1.8006zM5.30156 1.12009c-.67923-.299358-1.30288-.00533-1.52747.69023C2.53089 5.65939 1.29178 9.50979.055868 13.3615c-.203177.6334.164454 1.2352.832751 1.3831.396331.0875.795851.1626 1.194461.2381.55668.1057 1.11383.2074 1.72381.3207-.02915-4.7396 1.48465-9.00798 3.4827-13.19594-.69517-.34867-1.32839-.69689-1.98803-.98737zM40.9491 13.3481c-.1923-1.344-.3285-2.6547-.4879-4.0036-.2437-2.05823-.4679-4.0978-.738-6.15292-.0989-.75151-.6464-1.06953-1.3935-.88964-1.1849.2847-2.3635.51788-3.608.83324 2.7953 3.60167 3.6034 7.53242 3.4417 11.97402h1.163c1.46 0 1.8236-.358 1.6227-1.7611z" fill="#11A63C"/>
  <path fill-rule="evenodd" clip-rule="evenodd" d="M33.7759 15.942l-8.993-6.29369c-1.7813-1.36356-3.5698-2.74889-5.7409-3.50529-.297-.10349-.7298-.09372-1.005.04353-1.4327.71465-2.8376 1.48171-4.2462 2.24166-1.4842.80126-3.2996.45304-4.42751-.863-.95985-1.11972-.94391-2.93366.03371-4.14266.10706-.13235.20227-.2736.34531-.46858-.25966-.01421-.41273-.00578-.55851-.03331-.77034-.14569-1.22953.11281-1.49011.87454-.63185 1.84681-1.33477 3.67052-1.99122 5.50933-.0574.16079-.46148 1.62477-.50977 2.19237l-.19179 1.8335c0 .5907-.01412 1.0859.01094 1.5794.00546.1084.13393.2403.24144.3007.05011.0284.21001-.0671.27834-.1426.23188-.2554.48061-.5787.72843-.7804.8733-.7097 2.00444-.6329 2.81441-.2838.63094.426.5822.426 1.40133.1581.85-.278 1.6522-.1727 2.403.2732.2952.1754.5262.2447.8683.0799 1.5703-.7559 3.3774.3993 3.7934 1.6257.0601.1776.322.3757.5188.4099 1.9453.338 2.963 2.0778 2.5197 3.579-.148.5011-.261 1.0123-.3822 1.5208-.072.3016-.0528.5281.2888.7302.6551.3882 1.2614.855 1.8842 1.2948.9065.6409 1.9047.302 2.1803-.7445.1175-.4463.051-.7763-.4109-1.0588-.723-.4424-1.3312-.9607-2.0651-1.4853-.3817-.2727-.1394-.8004.3923-.5823.082.0338.174.1084.2601.1688 1.1266.7915 2.25 1.587 3.3797 2.3736.6155.4281 1.2883.2851 1.7831-.3629.4728-.6192.3917-1.1899-.2319-1.6363-1.2765-.9127-2.5529-1.825-3.8285-2.7391-.266-.1905-.7056-.3806-.4191-.7573.2993-.3935.6132-.0018.8738.1795 1.599 1.1126 3.1975 2.2256 4.7801 3.3604.3918.2808.7225.5868 1.2628.3367.6182-.2865 1.0036-.7431 1.0386-1.3964.0128-.2385-.1503-.5756-.3471-.72-1.3639-1.002-2.7543-1.9698-4.1451-2.9363-.287-.1994-.5703-.4184-.2861-.7369.0857-.0964.5431.0022.739.1373 1.7447 1.2014 3.4772 2.4202 5.1919 3.6616.3462.2505.6287.2652 1.0027.1084 1.2445-.5219 1.4022-2.076.2555-2.9035z" fill="#11A63C"/>
</svg>
