<svg width="41" height="24" viewBox="0 0 41 24" fill="none" xmlns="http://www.w3.org/2000/svg">
<path fill-rule="evenodd" clip-rule="evenodd" d="M36.5444 9.86469C36.1895 7.95525 35.4347 6.17685 34.2375 4.5952C34.017 4.30383 33.8302 4.21456 33.4416 4.27407C32.4672 4.42242 31.4805 4.52902 30.4951 4.56233C29.974 4.5801 29.4009 4.51037 28.9289 4.30827C26.1264 3.10816 23.3088 1.93114 20.5741 0.595117C19.0184 -0.164837 17.6968 -0.262996 16.1821 0.68839C14.5257 1.72861 12.7249 2.54897 10.9952 3.47948C9.47545 4.29717 9.22307 6.21504 10.4786 7.29835C11.2694 7.98102 12.4356 7.99079 13.5385 7.36452C15.0409 6.5113 16.5543 5.67539 18.0731 4.84926C18.2608 4.7471 18.5596 4.64894 18.7218 4.72401C20.0543 5.34316 21.4132 5.92856 22.6719 6.67253C23.9101 7.40405 25.0344 8.31724 26.2207 9.13449L32.3633 13.4584C32.761 13.7306 33.2134 13.9509 33.5455 14.2854C34.3815 15.1275 35.2721 15.2226 36.3804 14.817C36.8587 14.642 37.0041 14.4666 36.9653 14.0447C36.8364 12.6496 36.7995 11.2376 36.5444 9.86469Z" fill="#11A63C"/>
<path fill-rule="evenodd" clip-rule="evenodd" d="M17.8507 17.845C17.3204 17.8716 16.8029 18.1328 16.3446 18.2687C16.3802 17.8721 16.5733 17.3186 16.4307 16.866C16.2827 16.3966 15.8864 15.8956 15.454 15.6513C15.1105 15.4567 14.4983 15.5096 14.0992 15.6717C13.6901 15.8383 13.3958 16.2722 13.0587 16.5822C12.8674 15.8591 12.4201 15.2906 11.5691 15.1947C10.7655 15.1041 10.1651 15.4785 9.76008 16.2029C9.69129 16.0941 9.64665 16.0288 9.60701 15.9608C9.06035 15.0228 8.32144 14.7128 7.42856 15.0477C6.53249 15.3839 6.16941 16.1199 6.40311 17.1396C6.54797 17.7712 6.68692 18.405 6.85365 19.0313C7.07961 19.8783 7.8176 20.4069 8.67586 20.2714C9.07265 20.2088 9.23164 20.3331 9.44028 20.6258C10.0106 21.4262 11.0183 21.5577 11.8174 20.9843C11.9476 20.8906 12.0779 20.7977 12.2948 20.6427C12.1148 21.5408 12.4091 22.1564 13.1216 22.5437C13.9598 22.9994 14.6764 22.6774 15.3237 22.0991C15.4139 22.3727 15.4732 22.6188 15.5738 22.8471C15.8376 23.4449 16.5392 23.882 17.1505 23.8495C17.812 23.8149 18.5349 23.3196 18.6989 22.6996C18.9668 21.6896 19.2123 20.6716 19.4041 19.6456C19.5823 18.7013 18.8219 17.7965 17.8507 17.845Z" fill="#11A63C"/>
<path fill-rule="evenodd" clip-rule="evenodd" d="M5.30156 1.12003C4.62233 0.820671 3.99868 1.1147 3.77409 1.81025C2.53089 5.65933 1.29178 9.50973 0.055868 13.3615C-0.147309 13.9948 0.220322 14.5967 0.888619 14.7446C1.28495 14.8321 1.68447 14.9071 2.08308 14.9826C2.63976 15.0883 3.19691 15.1901 3.80689 15.3033C3.77774 10.5637 5.29154 6.29536 7.28959 2.1074C6.59442 1.75873 5.9612 1.41051 5.30156 1.12003Z" fill="#11A63C"/>
<path fill-rule="evenodd" clip-rule="evenodd" d="M40.9491 13.3481C40.7568 12.0041 40.6206 10.6934 40.4612 9.3445C40.2175 7.28627 39.9933 5.2467 39.7232 3.19158C39.6243 2.44007 39.0768 2.12205 38.3297 2.30194C37.1448 2.58664 35.9662 2.81982 34.7217 3.13518C37.517 6.73685 38.3251 10.6676 38.1634 15.1092C38.603 15.1092 38.9647 15.1092 39.3264 15.1092C40.7864 15.1092 41.15 14.7512 40.9491 13.3481Z" fill="#11A63C"/>
<path fill-rule="evenodd" clip-rule="evenodd" d="M33.776 15.942L24.783 9.64825C23.0018 8.28469 21.2133 6.89936 19.0421 6.14296C18.7451 6.03947 18.3123 6.04924 18.0371 6.18649C16.6044 6.90114 15.1995 7.6682 13.7909 8.42815C12.3067 9.22941 10.4914 8.88119 9.36341 7.56515C8.40356 6.44543 8.41951 4.63149 9.39712 3.42249C9.50418 3.29013 9.59939 3.14889 9.74243 2.95391C9.48277 2.93969 9.3297 2.94813 9.18393 2.9206C8.41358 2.77491 7.95439 3.03341 7.69381 3.79514C7.06196 5.64195 6.35904 7.46566 5.70259 9.30447C5.64519 9.46526 5.24111 10.9292 5.19282 11.4968L5.00104 13.3303C5.00104 13.921 4.98691 14.4163 5.01197 14.9097C5.01744 15.0181 5.1459 15.15 5.25341 15.2104C5.30352 15.2389 5.46342 15.1434 5.53176 15.0679C5.76363 14.8125 6.01236 14.4891 6.26018 14.2875C7.13348 13.5777 8.26462 13.6546 9.07459 14.0037C9.70553 14.4296 9.65679 14.4296 10.4759 14.1618C11.3259 13.8837 12.1282 13.989 12.8789 14.4349C13.1741 14.6104 13.4051 14.6797 13.7472 14.5149C15.3175 13.7589 17.1247 14.9142 17.5406 16.1405C17.6007 16.3182 17.8627 16.5163 18.0595 16.5505C20.0047 16.8885 21.0224 18.6282 20.5791 20.1295C20.4311 20.6305 20.3181 21.1417 20.1969 21.6503C20.1249 21.9519 20.1441 22.1784 20.4857 22.3805C21.1408 22.7687 21.7472 23.2355 22.3699 23.6752C23.2765 24.3161 24.2746 23.9772 24.5502 22.9308C24.6677 22.4844 24.6012 22.1544 24.1393 21.8719C23.4163 21.4295 22.8082 20.9112 22.0743 20.3866C21.6925 20.1139 21.9349 19.5863 22.4665 19.8044C22.5485 19.8381 22.6405 19.9127 22.7266 19.9731C23.8532 20.7646 24.9766 21.5601 26.1064 22.3467C26.7218 22.7749 27.3947 22.6319 27.8894 21.9838C28.3623 21.3647 28.2812 20.7939 27.6575 20.3476C26.3811 19.4348 25.1046 18.5225 23.829 17.6084C23.563 17.4179 23.1234 17.2278 23.4099 16.8512C23.7092 16.4576 24.0231 16.8494 24.2837 17.0306C25.8827 18.1432 27.4812 19.2563 29.0638 20.3911C29.4556 20.6718 29.7863 20.9778 30.3266 20.7278C30.9448 20.4413 31.3302 19.9847 31.3653 19.3313C31.378 19.0928 31.2149 18.7557 31.0181 18.6114C29.6542 17.6093 28.2639 16.6415 26.8731 15.675C26.5861 15.4756 26.3027 15.2566 26.587 14.9382C26.6726 14.8418 27.13 14.9404 27.3259 15.0754C29.0706 16.2769 30.8031 17.4956 32.5178 18.737C32.864 18.9876 33.1465 19.0022 33.5205 18.8454C34.7651 18.3235 34.9227 16.7694 33.776 15.942Z" fill="#11A63C"/>
</svg>
