<svg width="39" height="23" viewBox="0 0 39 23" fill="none" xmlns="http://www.w3.org/2000/svg">
<path fill-rule="evenodd" clip-rule="evenodd" d="M34.7616 9.45366C34.424 7.62379 33.706 5.91948 32.5672 4.40373C32.3575 4.12451 32.1798 4.03895 31.8102 4.09599C30.8833 4.23816 29.9447 4.34031 29.0074 4.37224C28.5117 4.38926 27.9665 4.32243 27.5176 4.12876C24.8518 2.97865 22.1716 1.85068 19.5703 0.570321C18.0905 -0.157968 16.8334 -0.252038 15.3926 0.659707C13.817 1.65658 12.104 2.44276 10.4587 3.3345C9.01308 4.11812 8.77301 5.95608 9.96727 6.99425C10.7195 7.64847 11.8289 7.65784 12.878 7.05767C14.3071 6.23999 15.7466 5.43892 17.1913 4.64721C17.3699 4.54931 17.6541 4.45524 17.8084 4.52717C19.0759 5.12053 20.3685 5.68154 21.5658 6.39451C22.7436 7.09555 23.8131 7.97069 24.9415 8.75389L30.7845 12.8976C31.1628 13.1585 31.5931 13.3696 31.909 13.6902C32.7042 14.4972 33.5513 14.5883 34.6056 14.1997C35.0606 14.032 35.1988 13.8638 35.162 13.4595C35.0394 12.1225 35.0043 10.7693 34.7616 9.45366Z" fill="#272A2C"/>
<path fill-rule="evenodd" clip-rule="evenodd" d="M16.9803 17.1014C16.4759 17.127 15.9837 17.3773 15.5477 17.5075C15.5815 17.1274 15.7653 16.597 15.6296 16.1633C15.4888 15.7134 15.1118 15.2333 14.7006 14.9991C14.3738 14.8127 13.7914 14.8634 13.4118 15.0187C13.0227 15.1783 12.7428 15.5942 12.4221 15.8913C12.2401 15.1984 11.8146 14.6535 11.0051 14.5616C10.2407 14.4747 9.66959 14.8336 9.28436 15.5278C9.21893 15.4235 9.17646 15.361 9.13876 15.2958C8.61876 14.3969 7.9159 14.0997 7.06657 14.4207C6.21421 14.7429 5.86884 15.4482 6.09114 16.4255C6.22894 17.0308 6.36111 17.6382 6.51971 18.2384C6.73464 19.0501 7.43664 19.5566 8.25303 19.4268C8.63046 19.3668 8.7817 19.4859 8.98016 19.7664C9.52269 20.5335 10.4812 20.6595 11.2413 20.1099C11.3652 20.0201 11.4891 19.9312 11.6954 19.7826C11.5242 20.6433 11.8042 21.2332 12.4819 21.6044C13.2792 22.0411 13.9609 21.7325 14.5766 21.1783C14.6624 21.4405 14.7188 21.6763 14.8145 21.8951C15.0654 22.468 15.7328 22.8869 16.3143 22.8558C16.9435 22.8226 17.6312 22.348 17.7872 21.7538C18.042 20.7859 18.2755 19.8103 18.458 18.827C18.6274 17.9221 17.9042 17.055 16.9803 17.1014Z" fill="#272A2C"/>
<path fill-rule="evenodd" clip-rule="evenodd" d="M5.04295 1.07337C4.39685 0.786479 3.80362 1.06826 3.58999 1.73483C2.40743 5.42352 1.22877 9.11349 0.0531427 12.8047C-0.140123 13.4117 0.209575 13.9885 0.845272 14.1302C1.22227 14.2141 1.6023 14.286 1.98147 14.3584C2.511 14.4597 3.04096 14.5571 3.62119 14.6657C3.59346 10.1236 5.03342 6.03305 6.934 2.01959C6.27274 1.68545 5.67041 1.35174 5.04295 1.07337Z" fill="#272A2C"/>
<path fill-rule="evenodd" clip-rule="evenodd" d="M38.9519 12.792C38.7691 11.5039 38.6395 10.2478 38.4879 8.95514C38.256 6.98267 38.0428 5.02808 37.7859 3.0586C37.6918 2.33839 37.171 2.03363 36.4603 2.20602C35.3332 2.47886 34.2122 2.70233 33.0283 3.00454C35.6872 6.45614 36.456 10.2232 36.3021 14.4797C36.7203 14.4797 37.0644 14.4797 37.4084 14.4797C38.7972 14.4797 39.143 14.1366 38.9519 12.792Z" fill="#272A2C"/>
<path fill-rule="evenodd" clip-rule="evenodd" d="M32.1281 15.2777L23.5737 9.24626C21.8793 7.93951 20.1781 6.6119 18.1128 5.88702C17.8303 5.78784 17.4186 5.79721 17.1569 5.92873C15.7941 6.61361 14.4577 7.34871 13.1178 8.07699C11.706 8.84487 9.97921 8.51116 8.90628 7.24995C7.99325 6.17689 8.00842 4.43853 8.93835 3.27991C9.04018 3.15306 9.13074 3.01771 9.26681 2.83085C9.01981 2.81722 8.87421 2.82531 8.73555 2.79892C8.00278 2.65931 7.56599 2.90704 7.31812 3.63703C6.71709 5.40689 6.04846 7.15461 5.42403 8.9168C5.36943 9.07089 4.98507 10.4738 4.93913 11.0178L4.7567 12.7749C4.7567 13.341 4.74327 13.8156 4.7671 14.2885C4.7723 14.3924 4.8945 14.5188 4.99677 14.5767C5.04443 14.6039 5.19653 14.5124 5.26153 14.4401C5.4821 14.1953 5.7187 13.8854 5.95443 13.6922C6.78512 13.012 7.86109 13.0856 8.63155 13.4202C9.23171 13.8284 9.18535 13.8284 9.96447 13.5717C10.7731 13.3053 11.5362 13.4061 12.2503 13.8335C12.5311 14.0016 12.7508 14.068 13.0762 13.9101C14.5699 13.1857 16.2889 14.2928 16.6846 15.468C16.7418 15.6383 16.9909 15.8281 17.1781 15.8609C19.0285 16.1848 19.9965 17.8521 19.5749 19.2908C19.4341 19.7709 19.3266 20.2608 19.2113 20.7482C19.1429 21.0372 19.1611 21.2543 19.4861 21.448C20.1092 21.82 20.6859 22.2673 21.2783 22.6887C22.1406 23.303 23.0901 22.9782 23.3522 21.9754C23.464 21.5476 23.4008 21.2313 22.9614 20.9606C22.2737 20.5366 21.6952 20.0399 20.9971 19.5372C20.634 19.2759 20.8645 18.7702 21.3702 18.9792C21.4482 19.0115 21.5357 19.0831 21.6176 19.1409C22.6892 19.8995 23.7578 20.6618 24.8325 21.4156C25.4179 21.8259 26.058 21.6889 26.5286 21.0679C26.9783 20.4745 26.9012 19.9275 26.308 19.4998C25.0938 18.6251 23.8796 17.7508 22.6663 16.8748C22.4132 16.6922 21.995 16.51 22.2676 16.149C22.5523 15.7719 22.8509 16.1473 23.0987 16.321C24.6197 17.3873 26.1403 18.4539 27.6457 19.5415C28.0183 19.8105 28.3329 20.1038 28.8469 19.8641C29.4349 19.5896 29.8015 19.152 29.8349 18.5259C29.847 18.2973 29.6919 17.9742 29.5047 17.8359C28.2073 16.8756 26.8847 15.9481 25.5618 15.0219C25.2888 14.8308 25.0193 14.621 25.2897 14.3158C25.3711 14.2234 25.8062 14.3179 25.9925 14.4473C27.6522 15.5987 29.3001 16.7667 30.9312 17.9564C31.2605 18.1964 31.5292 18.2105 31.885 18.0602C33.0688 17.5601 33.2187 16.0707 32.1281 15.2777Z" fill="#272A2C"/>
</svg>
