<svg width="34" height="34" viewBox="0 0 34 34" fill="none" xmlns="http://www.w3.org/2000/svg">
<path d="M11.2433 15.3114C10.6566 14.7486 10.6566 13.8691 11.2433 13.3063C11.8301 12.7434 12.7469 12.7434 13.3336 13.3063C13.9203 13.8691 13.9203 14.7486 13.3336 15.3114C12.7469 15.8743 11.7934 15.8743 11.2433 15.3114ZM20.5945 19.0404C20.0078 19.6032 20.0078 20.4827 20.5945 21.0455C21.1812 21.6084 22.098 21.6084 22.6848 21.0455C23.2715 20.4827 23.2715 19.6032 22.6848 19.0404C22.1347 18.5127 21.1812 18.5127 20.5945 19.0404ZM0.388627 13.4822C-0.38147 12.3213 0.0219144 11.09 1.34208 10.5975C2.62558 10.105 3.8724 9.6477 5.15589 9.19038C5.41259 9.08484 5.52261 8.97931 5.52261 8.69788C5.55928 7.39627 5.63262 6.09467 5.74263 4.79307C5.85265 3.38593 6.87944 2.71754 8.67634 3.1045C9.59312 3.35075 10.8766 3.66736 12.1234 4.01914C12.4535 4.12468 12.6735 4.05432 12.8935 3.77289C13.7003 2.78789 14.5437 1.8029 15.3505 0.8179C16.2673 -0.272633 17.6608 -0.272633 18.5776 0.8179C19.421 1.8029 20.2645 2.78789 21.1079 3.80807C21.2913 4.01914 21.4379 4.0895 21.7313 4.01914C23.0148 3.66736 24.335 3.31557 25.6185 2.99897C27.012 2.64718 28.1121 3.42111 28.1855 4.79307C28.2588 6.09467 28.3321 7.3611 28.4055 8.6627C28.4055 8.94413 28.5155 9.08484 28.7722 9.1552C30.019 9.57734 31.2292 10.0347 32.476 10.492C33.9429 11.0197 34.3829 12.2509 33.5395 13.4822C32.8427 14.5375 32.1093 15.5929 31.3759 16.6482C31.1925 16.8945 31.1925 17.0352 31.3759 17.2814C32.146 18.3368 32.8794 19.4273 33.6128 20.5178C34.3829 21.6787 33.9795 22.91 32.6227 23.4377C31.3759 23.895 30.129 24.3523 28.8822 24.8096C28.6255 24.9152 28.4788 25.0207 28.4788 25.3373C28.4422 26.6389 28.3321 27.9405 28.2588 29.2421C28.1855 30.5789 27.0487 31.3528 25.6918 31.001C24.3716 30.6493 23.0515 30.3326 21.7313 29.9809C21.4746 29.9105 21.3279 29.9809 21.1812 30.1568C20.3378 31.1769 19.4944 32.1619 18.6509 33.1821C17.7341 34.2726 16.3773 34.2726 15.4239 33.1821C14.5804 32.1971 13.7003 31.1769 12.8935 30.1568C12.7102 29.9457 12.5635 29.9105 12.3068 29.9809C11.0233 30.3326 9.73981 30.6141 8.49298 31.001C6.91612 31.4935 5.74264 30.3678 5.77931 29.1014C5.77931 27.8702 5.63262 26.6037 5.59595 25.3725C5.59595 25.0911 5.48594 24.9855 5.22924 24.88C3.94574 24.4227 2.66225 23.9653 1.37875 23.4728C0.131928 23.0155 -0.308127 21.7491 0.388627 20.6937C1.12205 19.568 1.85548 18.4775 2.62558 17.3518C2.80893 17.1055 2.80893 16.9296 2.62558 16.7186C1.85548 15.6632 1.12205 14.5727 0.388627 13.4822ZM21.658 16.6482C19.7144 16.6482 18.1009 18.1609 18.1009 20.0605C18.1009 21.925 19.6777 23.4728 21.658 23.4728C23.6016 23.4728 25.2151 21.9602 25.2151 20.0605C25.2151 18.1609 23.6016 16.6482 21.658 16.6482ZM11.6467 22.0657C11.3533 22.4175 11.39 22.9452 11.7567 23.2266C12.1234 23.508 12.6735 23.4728 12.9669 23.1211L22.2814 12.3564C22.5748 12.0047 22.5381 11.477 22.1714 11.1956C21.8047 10.9141 21.2546 10.9493 20.9612 11.3011L11.6467 22.0657ZM8.71301 14.2913C8.71301 16.1909 10.2899 17.7036 12.2701 17.7036C14.2137 17.7036 15.8272 16.1909 15.8272 14.2913C15.8272 12.4268 14.2504 10.8789 12.2701 10.8789C10.3265 10.9141 8.71301 12.4268 8.71301 14.2913Z" fill="#11A63C"/>
</svg>
