<svg width="29" height="34" fill="none" xmlns="http://www.w3.org/2000/svg">
  <path d="M28.2304 18.8985c.0014-2.271-.545-4.5087-1.5931-6.5233-1.048-2.0147-2.5667-3.74668-4.427-5.04906-1.8604-1.30238-4.0075-2.13667-6.2591-2.43205-2.2517-.29539-4.5413-.04314-6.67465.73533-2.13333.77846-4.04734 2.06016-5.57955 3.7363C2.16478 11.0418 1.0596 13.0629.475271 15.2574c-.584331 2.1945-.630558 4.4975-.13476 6.7136.495797 2.2162 1.518979 4.28 2.982699 6.0163l-1.61079 4.9586 4.73381-2.2145c2.00579 1.3043 4.31177 2.074 6.69877 2.2361h.1448c.1601 0 .3234 0 .4835.0154.1602.0154.308.0184.4774.0184s.308-.0184.4651-.0246h.2679c3.3915-.1815 6.6012-1.5907 9.0301-3.9647 2.429-2.374 3.9113-5.5505 4.1704-8.937.0246-.3018.04-.6098.0462-.924v-.1324c-.0031-.037 0-.0801 0-.1201z" fill="#11A63C"/>
  <path d="M6.27566 19.299v.042c0 1.008.777 1.785 1.827 1.785 1.05 0 1.827-.777 1.827-1.785v-.042c0-1.008-.777-1.785-1.827-1.785-1.05 0-1.827.777-1.827 1.785zm6.00874 0v.042c0 1.008.777 1.785 1.827 1.785 1.05 0 1.827-.777 1.827-1.785v-.042c0-1.008-.777-1.785-1.827-1.785-1.05 0-1.827.777-1.827 1.785zm6.0088 0v.042c0 1.008.777 1.785 1.827 1.785 1.05 0 1.827-.777 1.827-1.785v-.042c0-1.008-.777-1.785-1.827-1.785-1.05 0-1.827.777-1.827 1.785z" fill="#fff"/>
</svg>
