<svg width="15" height="14" fill="none" xmlns="http://www.w3.org/2000/svg"><path d="M13.378 10.128v1.72c0 .16-.035.318-.105.465-.069.146-.17.277-.299.385-.127.108-.278.19-.442.242-.165.05-.338.07-.511.055a13.007 13.007 0 01-5.371-1.76 11.705 11.705 0 01-3.734-3.44 10.786 10.786 0 01-1.911-4.972 1.062 1.062 0 01.06-.469c.055-.15.144-.29.26-.407.117-.118.259-.212.417-.276.158-.064.329-.097.502-.098H4.11a1.31 1.31 0 01.824.278c.229.181.378.433.42.709.08.55.225 1.09.436 1.61.084.206.102.43.052.644-.05.214-.165.41-.332.567l-.79.728c.886 1.435 2.176 2.624 3.734 3.44l.79-.728c.17-.154.383-.26.616-.306.232-.046.475-.03.697.048a8.556 8.556 0 001.75.401c.302.04.578.18.775.395.197.214.302.488.295.77z" fill="#fff"/><path d="M9.052 3.294c.608.109 1.167.383 1.605.786.438.404.735.918.854 1.478M9.052 1c1.263.13 2.44.65 3.34 1.478.9.827 1.466 1.911 1.608 3.075m-.622 4.575v1.72c0 .16-.035.318-.105.465-.069.146-.17.277-.299.385-.127.108-.278.19-.442.242-.165.05-.338.07-.511.055a13.007 13.007 0 01-5.371-1.76 11.705 11.705 0 01-3.734-3.44 10.786 10.786 0 01-1.911-4.972 1.062 1.062 0 01.06-.469c.055-.15.144-.29.26-.407.117-.118.259-.212.417-.276.158-.064.329-.097.502-.098H4.11a1.31 1.31 0 01.824.278c.229.181.378.433.42.709.08.55.225 1.09.436 1.61.084.206.102.43.052.644-.05.214-.165.41-.332.567l-.79.728c.886 1.435 2.176 2.624 3.734 3.44l.79-.728c.17-.154.383-.26.616-.306.232-.046.475-.03.697.048a8.556 8.556 0 001.75.401c.302.04.578.18.775.395.197.214.302.488.295.77z" stroke="#11A63C" stroke-width=".75" stroke-linecap="round" stroke-linejoin="round"/></svg>