<svg width="51" height="51" fill="none" xmlns="http://www.w3.org/2000/svg">
  <path d="M50.007 25.1881c.0026-4.0227-.9654-7.9866-2.8219-11.5553-1.8565-3.5687-4.5466-6.63678-7.842-8.9438C36.0477 2.38197 32.2443.904114 28.2557.380876 24.2672-.142362 20.2113.30447 16.4324 1.68344c-3.779 1.37896-7.16943 3.64935-9.88358 6.61844C3.83467 11.271 1.87697 14.8511.84189 18.7383-.193187 22.6256-.275073 26.7052.603178 30.6308 1.48143 34.5565 3.29389 38.2123 5.8867 41.2879l-2.85333 8.7837 8.38543-3.9227c3.553 2.3103 7.6378 3.6738 11.8662 3.9609h.2564c.2837 0 .5728 0 .8565.0272.2837.0273.5456.0328.8456.0328.3001 0 .5456-.0327.8239-.0437h.4746c6.0077-.3215 11.6933-2.8178 15.9959-7.023 4.3025-4.2052 6.9283-9.8321 7.3873-15.8309.0436-.5347.0709-1.0802.0818-1.6367v-.2346c-.0055-.0655 0-.1419 0-.2128z" fill="#1EA233"/>
  <path d="M36.5151 21.5109h-7.8344v-7.8344h-7.3489v7.8344h-7.8344v7.3488h7.8344v7.8344h7.3489v-7.8344h7.8344v-7.3488z" fill="#F6F6F6"/>
</svg>
