<svg width="18" height="18" viewBox="0 0 18 18" fill="none" xmlns="http://www.w3.org/2000/svg">
<path d="M7.82807 13.6209C10.9251 13.6209 13.459 11.0735 13.459 7.95996C13.459 4.84644 10.9251 2.29901 7.82807 2.29901C4.73106 2.29901 2.19714 4.84644 2.19714 7.95996C2.19714 11.0735 4.73106 13.6209 7.82807 13.6209ZM14.6688 11.0767C14.2424 11.9943 14.2774 13.1228 14.991 13.8402L17.1191 15.9796C17.4945 16.357 17.4945 16.9231 17.1191 17.3005C16.7437 17.6779 16.1806 17.6779 15.8052 17.3005L13.6734 15.1573C12.9614 14.4415 11.836 14.3988 10.9175 14.818C7.8246 16.2293 4.08154 15.4057 1.9156 12.5831C-0.618322 9.28085 -0.0552295 4.56339 3.22948 2.01596C6.51419 -0.531466 11.2066 0.0346294 13.7405 3.33685C15.5247 5.59846 15.8341 8.56913 14.6688 11.0767Z" fill="white"/>
</svg>
