<svg width="62" height="22" fill="none" xmlns="http://www.w3.org/2000/svg">
  <path d="M5.3564 12.1289c1.90166-2.86042 3.80333-5.70498 5.705-8.54955 1.1237 2.35193 2.8093 5.08526 4.6461 7.24645-3.4143-.0317-7.26089.1431-10.3511 1.3031zm56.4882 2.8128s-2.8093-4.3066-4.4516-6.83329c-.0433-.04767-.0865-.11124-.1297-.15891-.2809-.31783-.7563-.54031-1.3182-.54031-.7563 0-1.3614.38139-1.5343.90581-.0216.04767-.0432.09535-.0648.12713-.1945.44496-.4106.88992-.6483 1.31899-.7348 1.35078-1.6208 2.65388-2.658 3.86158-2.939 3.4008-7.4338 6.8651-13.0308 7.1671-10.8481.588-18.2387-7.8186-22.2582-14.31821-1.1669-1.87519-2.2258-3.81394-2.9605-5.816263-.2809-.778681-2.3555-.889921-2.8309-.190698C6.73943 5.29563 3.51956 10.1107.299687 14.9417c-.086439.1272-1.145323 1.4461 1.318203 1.4461 2.6364 0 3.99782-4.4654 15.08371-4.4654 1.3614 1.5096 2.8957 2.924 4.5597 4.2112 4.041 3.0988 9.4003 5.7686 15.3214 5.8639 6.31.0954 11.8854-2.5744 15.7319-6.2453 1.5559-1.4779 2.8958-3.1306 3.8898-4.8787l3.1983 4.9581c.2161.3497.6915.5721 1.2317.5721.7564 0 1.3615-.4608 1.3615-1.017.0216-.1589-.0433-.3178-.1513-.445z" fill="#11A63C"/>
</svg>
