<svg width="62" height="22" viewBox="0 0 62 22" fill="none" xmlns="http://www.w3.org/2000/svg">
<path d="M5.3564 12.1289C7.25806 9.26848 9.15973 6.42392 11.0614 3.57935C12.1851 5.93128 13.8707 8.66461 15.7075 10.8258C12.2932 10.7941 8.44661 10.9689 5.3564 12.1289ZM61.8446 14.9417C61.8446 14.9417 59.0353 10.6351 57.393 8.10841C57.3497 8.06074 57.3065 7.99717 57.2633 7.9495C56.9824 7.63167 56.507 7.40919 55.9451 7.40919C55.1888 7.40919 54.5837 7.79058 54.4108 8.315C54.3892 8.36267 54.3676 8.41035 54.346 8.44213C54.1515 8.88709 53.9354 9.33205 53.6977 9.76112C52.9629 11.1119 52.0769 12.415 51.0397 13.6227C48.1007 17.0235 43.6059 20.4878 38.0089 20.7898C27.1608 21.3778 19.7702 12.9712 15.7507 6.47159C14.5838 4.5964 13.5249 2.65765 12.7902 0.655327C12.5093 -0.123354 10.4347 -0.234594 9.9593 0.464629C6.73943 5.29563 3.51956 10.1107 0.299687 14.9417C0.213248 15.0689 -0.845636 16.3878 1.61789 16.3878C4.25429 16.3878 5.61571 11.9224 16.7016 11.9224C18.063 13.432 19.5973 14.8464 21.2613 16.1336C25.3023 19.2324 30.6616 21.9022 36.5827 21.9975C42.8927 22.0929 48.4681 19.4231 52.3146 15.7522C53.8705 14.2743 55.2104 12.6216 56.2044 10.8735L59.4027 15.8316C59.6188 16.1813 60.0942 16.4037 60.6344 16.4037C61.3908 16.4037 61.9959 15.9429 61.9959 15.3867C62.0175 15.2278 61.9526 15.0689 61.8446 14.9417Z" fill="#272A2C"/>
</svg>
