<svg width="49" height="49" fill="none" xmlns="http://www.w3.org/2000/svg">
  <path d="M47.6419 23.2824c-.4539-.4511-1.0678-.7043-1.7077-.7043-.6399 0-1.2538.2532-1.7076.7043L34.1935 33.3155c-.6703.6745-1.4677 1.2094-2.3461 1.5737-.8784.3643-1.8204.5507-2.7713.5485h-8.871c-.202-.0166-.3903-.1086-.5276-.2577-.1373-.1491-.2135-.3443-.2135-.547 0-.2027.0762-.3979.2135-.547.1373-.1491.3256-.2411.5276-.2577h8.8437c.4335.0179.8661-.0521 1.2719-.2057.4058-.1536.7763-.3876 1.0894-.688.313-.3004.5621-.661.7322-1.0601.1702-.3991.2579-.8285.2579-1.2623 0-.4339-.0877-.8633-.2579-1.2624-.1701-.3991-.4192-.7597-.7322-1.0601-.3131-.3004-.6836-.5344-1.0894-.688-.4058-.1536-.8384-.2235-1.2719-.2057H15.8951c-2.0643-.0005-4.0824.6108-5.7994 1.7568L.466364 35.5741c-.17069.111-.292041.2835-.338784.4816-.046743.1982-.015292.4067.08781.5823l6.43228 11.2606c.05825.0995.13702.1856.23108.2524.09407.0668.20128.1128.31449.1349h.16368c.17373 0 .34256-.0575.48009-.1637l4.93739-3.7044c.857-.6313 1.874-1.0094 2.9352-1.0911l15.276-1.2003c2.3247-.1796 4.4831-1.2745 6.0013-3.0443l10.6659-12.3899c.4507-.4529.7038-1.0659.7038-1.7049s-.2531-1.252-.7038-1.7049h-.0109zM23.8331 25.6884c.1203.0666.2553.1022.3928.1037.1391-.0021.2757-.0377.3982-.1037.5729-.3273 14.0758-8.0471 14.0758-17.58372.005-1.69076-.5244-3.33988-1.5126-4.71175C36.199 2.02105 34.8025.996603 33.1972.465931c-1.6054-.5306712-3.3373-.5404115-4.9485-.027834-1.6112.512578-3.0192 1.521253-4.0228 2.881923-1.0044-1.35837-2.412-2.364909-4.0222-2.876041-1.6101-.511132-3.3406-.5007573-4.9445.029648-1.6039.530403-2.9994 1.553753-3.9874 2.924073-.9879 1.37032-1.51798 3.01764-1.51446 4.70698 0 9.53662 13.49746 17.25642 14.07576 17.58372z" fill="#1EA233"/>
</svg>
