<svg width="13" height="14" viewBox="0 0 13 14" fill="none" xmlns="http://www.w3.org/2000/svg">
<path d="M12.8724 12.9358C12.8725 13.0693 12.8483 13.2015 12.8011 13.3249C12.7539 13.4483 12.6847 13.5604 12.5975 13.6549C12.5103 13.7494 12.4067 13.8243 12.2926 13.8754C12.1786 13.9265 12.0564 13.9528 11.933 13.9528C11.8092 13.9561 11.6862 13.9309 11.5721 13.8788C11.4581 13.8268 11.3555 13.749 11.2714 13.6508L8.75276 10.9346C8.03837 11.4669 7.21147 11.7958 6.34849 11.8909C5.48551 11.9859 4.61431 11.8441 3.8154 11.4785C3.19758 11.2032 2.63625 10.7983 2.16378 10.2872C1.69131 9.77603 1.31704 9.16875 1.06256 8.50036C0.793609 7.81298 0.655029 7.07417 0.655029 6.32774C0.655029 5.58132 0.793609 4.8425 1.06256 4.15513C1.31704 3.48674 1.69131 2.87946 2.16378 2.36831C2.63625 1.85716 3.19758 1.45226 3.8154 1.17695C4.45076 0.885986 5.13367 0.736053 5.82362 0.736053C6.51356 0.736053 7.19648 0.885986 7.83185 1.17695C8.44984 1.45208 9.01135 1.85691 9.48395 2.36808C9.95655 2.87924 10.3309 3.48661 10.5853 4.15513C10.8557 4.84188 10.9941 5.58095 10.9922 6.32739C11.0013 7.46061 10.6831 8.56862 10.0819 9.49666L12.6005 12.2208C12.6885 12.3136 12.758 12.4249 12.8047 12.5479C12.8515 12.6708 12.8745 12.8028 12.8724 12.9358ZM8.14808 8.84177C8.45399 8.51207 8.69672 8.12028 8.86234 7.68886C9.02797 7.25744 9.11322 6.79489 9.11322 6.32774C9.11322 5.8606 9.02797 5.39805 8.86234 4.96663C8.69672 4.53521 8.45399 4.14342 8.14808 3.81372C7.68807 3.31711 7.1024 2.97905 6.46498 2.84218C5.82755 2.70531 5.16694 2.77577 4.56649 3.04467C3.96604 3.31358 3.45268 3.76887 3.09117 4.35311C2.72966 4.93734 2.53622 5.62433 2.53524 6.32739C2.53451 7.03127 2.72693 7.71954 3.08812 8.30499C3.44931 8.89045 3.96302 9.34672 4.56415 9.61601C5.16527 9.8853 5.82675 9.95547 6.46478 9.81763C7.1028 9.6798 7.68865 9.34017 8.14808 8.84177ZM8.17388 6.0733V6.58219C8.17303 6.64929 8.14801 6.71338 8.10415 6.76083C8.06029 6.80828 8.00105 6.83535 7.93902 6.83627H6.29433V8.61488C6.29365 8.68203 6.26869 8.74623 6.22479 8.79372C6.18089 8.84121 6.12155 8.86822 6.05948 8.86896H5.58975C5.55887 8.86951 5.52823 8.86311 5.49976 8.85018C5.47129 8.83724 5.44561 8.81805 5.42435 8.79381C5.40199 8.77075 5.38423 8.74297 5.37217 8.7122C5.36011 8.68142 5.354 8.6483 5.35423 8.61488V6.83627H3.7102C3.64818 6.83535 3.58894 6.80828 3.54508 6.76083C3.50122 6.71338 3.4762 6.64929 3.47534 6.58219V6.0733C3.4762 6.0062 3.50122 5.94211 3.54508 5.89466C3.58894 5.84721 3.64818 5.82014 3.7102 5.81921H5.35423V4.04061C5.35525 3.97338 5.3804 3.90921 5.42434 3.86166C5.46829 3.81411 5.5276 3.78691 5.58975 3.78581H6.05948C6.09035 3.78569 6.12093 3.79236 6.14936 3.8054C6.17779 3.81844 6.20348 3.83759 6.22487 3.86168C6.24655 3.88508 6.26359 3.91302 6.27496 3.94378C6.28633 3.97454 6.2918 4.00749 6.29102 4.04061V5.81778H7.93571C7.99774 5.81871 8.05697 5.84578 8.10084 5.89323C8.1447 5.94068 8.16972 6.00477 8.17057 6.07187L8.17388 6.0733Z" fill="#CFD2D1"/>
</svg>
